<?xml version="1.0" standalone="no"?>
<!DOCTYPE svg PUBLIC "-//W3C//DTD SVG 20010904//EN"
 "http://www.w3.org/TR/2001/REC-SVG-20010904/DTD/svg10.dtd">
<svg version="1.0" xmlns="http://www.w3.org/2000/svg"
 width="812.000000pt" height="129.000000pt" viewBox="0 0 812.000000 129.000000"
 preserveAspectRatio="xMidYMid meet">

<g transform="translate(0.000000,129.000000) scale(0.100000,-0.100000)"
fill="#000000" stroke="none">
<path d="M7045 1245 c-412 -57 -611 -270 -592 -635 10 -177 57 -290 163 -390
134 -125 357 -190 649 -190 442 0 706 142 791 425 26 84 26 296 0 380 -73 241
-269 376 -601 415 -117 13 -297 11 -410 -5z m401 -36 c340 -38 526 -174 579
-424 42 -201 -9 -410 -131 -529 -133 -131 -386 -197 -704 -182 -455 20 -676
188 -697 531 -13 212 59 380 205 479 100 68 234 111 402 129 77 8 256 6 346
-4z"/>
<path d="M7160 924 c-106 -21 -182 -71 -223 -148 -18 -33 -22 -58 -22 -131 0
-104 18 -148 83 -207 60 -54 126 -73 262 -73 138 0 206 18 268 71 68 58 87
103 87 209 0 74 -4 98 -22 131 -30 56 -96 111 -158 130 -49 16 -226 27 -275
18z m235 -49 c80 -21 120 -48 153 -103 23 -41 27 -58 27 -127 0 -69 -4 -86
-27 -127 -15 -25 -43 -55 -61 -67 -80 -49 -238 -65 -352 -36 -130 34 -180 97
-180 230 0 131 50 195 175 229 73 19 192 20 265 1z"/>
<path d="M603 1218 c-26 -34 -553 -1088 -553 -1107 0 -14 9 -25 26 -31 26 -10
404 -14 440 -4 13 3 33 32 57 80 l37 74 277 0 278 0 25 -58 c45 -105 37 -102
280 -102 122 0 219 4 230 10 13 7 21 7 25 0 8 -13 1254 -13 1275 0 12 8 15 39
15 180 0 141 -3 172 -15 180 -9 6 -181 10 -417 10 l-403 0 0 369 c0 203 -3
376 -6 385 -5 14 -35 16 -229 16 -194 0 -224 -2 -229 -16 -3 -9 -6 -246 -6
-527 l-1 -512 -267 530 -267 530 -281 3 c-218 2 -284 -1 -291 -10z m812 -558
c146 -291 265 -535 265 -540 0 -7 -71 -9 -207 -8 l-208 3 -39 78 -39 77 -302
0 -301 0 -39 -80 -39 -80 -209 0 c-195 0 -209 1 -202 17 3 10 125 253 271 541
l265 522 260 0 259 0 265 -530z m725 135 l0 -385 420 0 420 0 0 -150 0 -150
-615 0 -615 0 0 535 0 535 195 0 195 0 0 -385z"/>
<path d="M797 708 l-83 -173 88 -3 c49 -1 127 -1 174 0 l86 3 -86 173 c-47 94
-88 172 -91 172 -3 0 -42 -78 -88 -172z m148 -28 l55 -110 -110 0 c-60 0 -110
2 -110 4 0 8 101 216 105 216 3 0 30 -49 60 -110z"/>
<path d="M4422 1218 c-18 -18 -17 -1121 1 -1137 15 -12 985 -16 1003 -3 5 4
63 69 128 145 88 104 121 135 130 128 7 -6 64 -72 127 -146 l113 -135 273 0
c263 0 273 1 283 20 6 11 7 27 3 35 -5 7 -116 134 -248 280 -132 147 -240 271
-240 275 0 5 98 117 218 250 119 134 217 250 217 259 0 39 -16 41 -282 41
-241 0 -258 -1 -275 -19 -10 -11 -56 -67 -103 -125 -47 -58 -88 -105 -91 -106
-4 0 -51 53 -105 118 -54 64 -103 120 -108 124 -6 4 -126 8 -267 8 -263 0
-279 -2 -279 -41 0 -9 99 -127 220 -263 l221 -246 -238 -264 -238 -264 -3 526
c-1 368 -6 529 -13 539 -16 18 -429 19 -447 1z m418 -568 l0 -540 -195 0 -195
0 0 540 0 540 195 0 195 0 0 -540z m711 413 c57 -70 109 -133 115 -141 8 -11
34 16 125 127 l114 141 244 0 245 0 -31 -32 c-91 -97 -423 -471 -423 -478 0
-4 113 -132 250 -285 138 -152 250 -279 250 -281 0 -2 -112 -4 -248 -4 l-249
0 -129 154 c-71 85 -133 155 -139 155 -5 0 -68 -70 -140 -155 l-130 -154 -247
0 c-137 0 -248 2 -248 5 0 3 112 130 250 283 137 152 250 279 250 282 0 3 -54
66 -121 140 -66 74 -168 188 -226 253 l-104 117 243 0 244 0 105 -127z"/>
<path d="M3062 1208 c-17 -17 -17 -1109 0 -1126 17 -17 1269 -17 1286 0 17 17
17 299 0 316 -9 9 -116 12 -420 12 l-408 0 0 50 0 50 383 0 c285 0 386 3 395
12 17 17 17 269 0 286 -9 9 -110 12 -395 12 l-383 0 0 35 0 35 398 0 c233 0
403 4 412 10 12 8 15 36 15 155 0 119 -3 147 -15 155 -24 15 -1253 13 -1268
-2z m1248 -153 l0 -125 -415 0 -415 0 0 -75 0 -75 395 0 395 0 0 -115 0 -115
-395 0 -395 0 0 -90 0 -90 420 0 420 0 0 -130 0 -130 -615 0 -615 0 0 535 0
535 610 0 610 0 0 -125z"/>
</g>
</svg>
