<?xml version="1.0" standalone="no"?>
<!DOCTYPE svg PUBLIC "-//W3C//DTD SVG 20010904//EN"
 "http://www.w3.org/TR/2001/REC-SVG-20010904/DTD/svg10.dtd">
<svg version="1.0" xmlns="http://www.w3.org/2000/svg"
 width="1024.000000pt" height="1024.000000pt" viewBox="0 0 1024.000000 1024.000000"
 preserveAspectRatio="xMidYMid meet">

<g transform="translate(0.000000,1024.000000) scale(0.100000,-0.100000)"
fill="#000000" stroke="none">
<path d="M4975 9100 c-3 -5 1 -10 9 -10 9 0 16 5 16 10 0 6 -4 10 -9 10 -6 0
-13 -4 -16 -10z"/>
<path d="M3042 8868 c-19 -19 -14 -28 14 -28 18 0 25 5 22 17 -4 21 -21 26
-36 11z"/>
<path d="M4815 8723 c-27 -2 -113 -12 -190 -24 -551 -80 -955 -232 -1460 -548
-172 -108 -267 -180 -415 -320 -326 -308 -665 -808 -833 -1231 -111 -278 -180
-629 -104 -519 10 13 16 16 19 8 7 -20 51 -17 82 5 15 12 40 28 55 37 14 9 26
20 27 25 2 19 18 49 32 60 8 6 12 16 8 22 -4 6 2 20 12 30 10 10 26 44 36 76
10 32 24 60 32 63 9 3 12 18 9 46 -3 23 -2 36 1 30 11 -24 24 -13 24 21 0 18
7 39 15 46 8 7 15 19 15 26 0 8 3 14 8 14 4 0 7 13 8 29 1 16 11 39 23 52 13
14 20 32 17 43 -3 10 2 25 10 34 8 8 13 21 10 28 -3 7 -1 16 4 19 6 4 10 13
10 22 0 8 11 37 25 65 14 27 25 56 25 63 0 14 18 30 25 24 2 -2 -7 -35 -21
-74 -13 -38 -24 -78 -24 -87 0 -10 -4 -18 -9 -18 -5 0 -12 -24 -16 -52 -4 -29
-11 -57 -15 -63 -4 -5 -10 -21 -13 -35 -5 -25 -113 -449 -123 -482 -11 -39 14
-15 26 25 7 23 19 53 26 67 7 14 24 51 38 82 14 31 30 59 36 63 5 3 7 12 4 19
-3 7 6 21 20 30 15 9 26 23 26 32 0 8 14 35 30 59 17 24 30 48 30 54 0 6 8 30
19 54 10 23 24 57 30 75 27 77 34 92 48 92 9 0 13 6 9 15 -3 8 0 15 6 15 16 0
48 40 55 69 7 30 44 97 89 161 45 65 95 156 88 162 -9 10 34 85 58 102 12 9
19 16 15 16 -4 0 -3 9 3 20 6 11 15 18 20 15 5 -3 17 7 27 22 10 15 22 31 27
35 6 4 7 10 3 14 -4 4 -21 -8 -38 -27 l-31 -34 23 40 c57 100 198 291 243 330
7 5 19 19 26 29 14 18 13 19 -2 13 -10 -3 -18 -2 -18 3 0 15 23 53 40 67 12 9
12 14 3 24 -10 10 -17 8 -34 -10 -12 -12 -23 -20 -26 -18 -7 8 21 47 34 47 7
0 10 6 8 13 -3 6 5 23 18 37 12 14 35 42 51 63 36 47 133 112 262 174 173 83
174 83 174 56 -1 -12 -41 -41 -122 -88 -118 -68 -198 -127 -198 -147 0 -5 19
2 43 15 95 57 245 130 287 141 25 6 60 10 78 8 33 -3 34 -4 15 -24 -10 -12
-13 -18 -6 -15 6 4 14 3 18 -3 3 -6 -1 -13 -10 -16 -10 -4 -13 -13 -9 -26 4
-14 2 -18 -5 -14 -6 4 -11 3 -11 -3 0 -16 48 -25 64 -12 9 8 17 8 20 2 3 -5
-15 -17 -41 -27 -190 -69 -350 -177 -544 -366 -78 -75 -184 -194 -227 -253
-12 -16 -97 -148 -110 -170 -31 -54 -133 -267 -152 -320 -42 -114 -121 -361
-172 -530 -27 -93 -55 -179 -61 -190 -6 -11 -12 -22 -12 -25 -8 -49 -18 -80
-25 -80 -6 0 -6 10 0 26 12 31 12 34 1 34 -5 0 -11 -10 -14 -21 -4 -14 -11
-20 -20 -16 -10 4 -14 0 -13 -11 4 -24 -23 -62 -45 -62 -20 0 -32 -15 -36 -44
-5 -30 -32 -54 -53 -49 -12 3 -22 -1 -26 -11 -3 -9 -13 -16 -21 -16 -8 0 -11
-5 -7 -11 3 -6 0 -15 -7 -20 -23 -14 -29 -11 -29 16 0 16 -6 25 -16 25 -11 0
-15 6 -11 20 8 29 -8 33 -21 5 -8 -17 -8 -25 0 -27 12 -4 5 -43 -12 -68 -9
-13 -12 -13 -21 3 -14 24 -31 21 -27 -5 2 -16 9 -22 21 -20 10 2 17 -3 17 -13
0 -8 5 -15 12 -15 6 0 3 -9 -7 -20 -10 -11 -24 -20 -32 -20 -15 0 -16 -9 -3
-30 9 -13 11 -13 19 0 6 8 13 11 17 7 4 -3 2 -12 -3 -19 -6 -7 -13 -30 -17
-50 -4 -21 -11 -38 -16 -38 -6 0 -10 -7 -10 -16 0 -10 -5 -14 -15 -10 -13 5
-14 2 -4 -16 9 -17 9 -23 0 -26 -6 -2 -11 -15 -11 -28 0 -15 -4 -22 -10 -19
-11 7 -42 -19 -38 -32 4 -17 -30 -79 -55 -100 -16 -14 -24 -29 -21 -38 4 -9 0
-15 -9 -15 -8 0 -17 -6 -20 -14 -7 -17 -63 -29 -85 -17 -26 13 -117 21 -132
11 -31 -19 8 -33 90 -34 44 0 80 -3 80 -6 -1 -13 -30 -43 -36 -37 -10 10 -30
-23 -39 -61 -4 -22 -11 -32 -20 -28 -36 13 -85 18 -85 7 0 -6 6 -12 13 -13 16
-2 27 -4 57 -14 24 -8 23 -9 -15 -17 -68 -14 -371 -20 -395 -7 -17 9 -27 8
-47 -5 -24 -16 -24 -17 -7 -37 16 -17 30 -19 94 -18 41 1 125 2 186 1 97 -1
113 -4 132 -22 26 -24 21 -39 -13 -39 -13 0 -27 -5 -30 -10 -4 -6 -21 -8 -41
-4 -19 3 -34 4 -34 1 0 -12 66 -37 100 -39 71 -3 52 -13 -45 -23 -55 -6 -109
-8 -121 -4 -12 4 -34 1 -53 -8 -29 -15 -30 -17 -16 -33 22 -24 58 -30 81 -13
10 7 29 13 43 13 23 -1 24 -2 9 -11 -28 -16 -21 -29 16 -29 44 0 55 -16 16
-24 -17 -3 -30 -10 -30 -16 0 -14 38 -12 43 3 3 9 8 8 22 -3 10 -8 20 -14 22
-12 8 5 23 1 23 -7 0 -12 -57 -31 -74 -25 -8 3 -17 1 -21 -5 -3 -6 -19 -11
-36 -11 -16 0 -29 -3 -29 -7 1 -24 23 -35 81 -39 80 -6 104 -28 62 -55 -23
-16 -25 -19 -10 -25 10 -3 24 -1 32 6 9 7 18 10 22 7 3 -4 -2 -9 -11 -13 -9
-3 -16 -15 -16 -25 0 -17 -5 -18 -40 -13 -33 5 -40 4 -40 -10 0 -11 9 -16 28
-16 21 0 24 -2 12 -10 -11 -7 -7 -10 17 -10 30 0 52 -15 40 -27 -3 -2 -43 -6
-89 -8 -108 -4 -108 -4 -108 -13 0 -5 42 -10 92 -11 51 -1 94 -6 96 -11 2 -6
12 -10 22 -10 10 0 21 -8 24 -17 8 -19 -19 -51 -31 -39 -5 5 -2 11 5 13 19 7
14 23 -6 23 -27 0 -32 -9 -20 -35 13 -30 37 -40 45 -19 5 13 8 13 24 -2 11 -9
19 -25 19 -36 0 -10 4 -18 10 -18 5 0 7 -6 4 -14 -3 -9 3 -17 15 -21 12 -3 21
-10 21 -15 0 -5 -6 -7 -14 -4 -8 3 -17 1 -21 -5 -3 -6 1 -14 10 -17 9 -4 14
-12 11 -20 -3 -7 2 -18 9 -24 8 -7 12 -16 9 -21 -3 -5 2 -9 10 -9 9 0 16 -5
16 -11 0 -6 -9 -9 -19 -6 -12 3 -22 -1 -25 -9 -4 -9 2 -14 16 -14 20 0 19 -2
-9 -23 -25 -18 -29 -26 -22 -40 9 -14 5 -17 -22 -17 -25 0 -29 -3 -20 -14 9
-10 22 -11 60 -4 37 6 58 5 83 -6 l33 -14 -36 -1 c-28 -1 -38 -6 -42 -21 -3
-10 0 -21 7 -23 7 -3 5 -14 -7 -36 -19 -32 -19 -32 3 -38 19 -5 21 -10 15 -41
-6 -32 -5 -34 14 -29 22 5 30 -8 10 -15 -17 -6 -1 -48 18 -48 13 0 13 -2 2
-17 -13 -15 -12 -16 9 -11 17 5 22 2 22 -13 0 -10 -4 -19 -8 -19 -5 0 -9 -13
-9 -30 0 -16 4 -30 9 -30 4 0 8 5 8 10 0 6 5 10 11 10 7 0 9 -9 6 -21 -4 -15
-2 -19 8 -15 8 3 17 0 21 -6 4 -6 3 -8 -3 -5 -10 6 -48 -31 -40 -40 3 -2 14 0
25 6 26 14 32 14 32 1 0 -5 -6 -10 -14 -10 -21 0 -30 -18 -17 -34 6 -7 8 -27
5 -43 -7 -33 12 -55 27 -32 7 11 9 10 9 -4 0 -13 5 -17 19 -12 12 4 21 0 25
-12 4 -10 6 -19 4 -19 -2 -1 5 -11 16 -23 16 -18 17 -23 5 -38 -12 -15 -12
-16 3 -10 10 3 18 3 18 -2 0 -5 -9 -11 -20 -14 -11 -3 -20 -13 -20 -22 0 -14
3 -15 15 -5 8 7 15 9 15 5 0 -4 7 -2 15 5 8 7 15 9 15 6 0 -4 -7 -14 -15 -22
-8 -9 -15 -27 -15 -42 1 -25 2 -25 14 -9 18 23 26 22 26 -4 0 -16 5 -20 19
-16 15 4 18 -1 16 -22 -1 -14 -5 -34 -9 -43 -4 -9 -4 -23 0 -29 5 -9 10 -5 16
10 9 24 29 24 37 0 4 -12 2 -12 -13 0 -14 12 -16 12 -11 -2 4 -8 1 -18 -4 -22
-6 -3 -9 -11 -6 -16 4 -5 13 -2 22 6 20 21 30 11 12 -12 -11 -15 -11 -16 1 -5
8 6 18 12 22 12 13 0 9 -28 -5 -37 -8 -4 -16 -16 -20 -25 -5 -15 -2 -16 18 -8
23 9 27 6 45 -32 24 -50 24 -48 6 -48 -8 0 -16 6 -19 13 -2 6 -6 0 -9 -16 -5
-23 -3 -27 13 -22 11 4 19 2 19 -4 0 -6 5 -11 10 -11 6 0 10 7 10 15 0 13 3
13 20 3 11 -7 23 -22 26 -33 8 -24 29 -45 45 -45 10 0 10 -3 1 -12 -8 -8 -6
-16 10 -30 12 -10 26 -18 31 -18 13 0 -23 -35 -43 -43 -13 -5 -13 -6 0 -6 9
-1 24 -14 33 -31 16 -26 16 -30 3 -30 -9 0 -16 -4 -16 -10 0 -5 7 -10 16 -10
11 0 15 -6 12 -17 -4 -13 2 -18 19 -19 12 -1 23 3 23 10 0 6 4 4 10 -4 5 -8 5
-19 1 -25 -14 -18 -11 -54 4 -49 7 3 18 -4 25 -15 7 -14 21 -21 41 -21 25 0
30 -5 36 -30 3 -17 14 -35 24 -41 10 -5 18 -15 16 -22 -1 -7 7 -11 21 -9 16 2
25 -4 32 -22 5 -14 14 -26 19 -26 5 0 23 -13 41 -30 25 -23 29 -33 22 -47 -8
-13 -6 -21 7 -33 10 -8 20 -23 24 -33 3 -9 11 -17 17 -17 6 0 8 5 4 11 -4 7
-1 10 7 7 8 -3 14 -12 14 -21 0 -26 32 -57 51 -50 13 5 15 3 9 -7 -6 -10 -4
-12 8 -7 10 4 17 2 17 -5 0 -6 6 -5 17 3 15 12 16 12 10 -3 -3 -10 -2 -20 3
-23 5 -3 7 -13 4 -23 -4 -11 -3 -13 3 -5 5 7 19 10 31 6 24 -6 27 -14 12 -29
-7 -7 -4 -16 10 -29 18 -16 24 -17 41 -6 19 11 20 10 14 -8 -4 -12 -2 -21 4
-21 6 0 11 -7 11 -15 0 -12 4 -14 19 -5 13 6 22 7 26 0 3 -5 13 -6 21 -3 13 5
15 1 10 -14 -4 -14 -1 -23 9 -27 9 -3 15 -13 13 -22 -2 -9 3 -19 10 -21 6 -3
12 0 12 6 0 6 5 11 10 11 6 0 9 -3 9 -8 -3 -19 2 -30 17 -36 14 -5 15 -4 4 9
-18 22 2 19 27 -4 13 -13 25 -16 34 -10 18 11 31 -21 15 -40 -7 -9 -1 -8 16 3
25 17 28 17 28 2 0 -13 4 -15 19 -7 18 10 31 6 31 -11 0 -4 -5 -7 -11 -6 -6 2
-13 -2 -16 -8 -2 -7 8 -9 29 -6 18 2 30 1 26 -3 -13 -13 30 -37 53 -30 16 5
20 3 19 -12 -4 -32 0 -36 17 -22 15 12 16 12 10 -4 -5 -13 -3 -17 5 -15 7 3
21 -3 32 -13 10 -10 31 -21 47 -24 25 -6 27 -9 19 -31 -9 -22 -8 -24 9 -14 11
5 26 10 33 9 7 0 4 -4 -7 -8 -17 -7 -15 -10 17 -25 20 -10 42 -14 49 -10 7 4
9 3 5 -4 -7 -12 32 -38 41 -28 4 3 12 1 19 -5 8 -6 20 -9 28 -6 20 8 27 -3 15
-24 -8 -16 -6 -19 10 -19 11 0 23 -5 26 -11 4 -6 13 -8 21 -5 8 3 14 1 14 -5
0 -6 9 -8 20 -4 12 4 20 2 20 -5 0 -6 11 -8 28 -5 15 3 21 2 14 -1 -10 -5 -10
-10 4 -25 9 -10 24 -19 32 -19 13 0 12 3 -3 13 -30 23 -1 28 38 8 48 -25 84
-33 91 -22 3 5 15 7 26 4 19 -5 20 -7 5 -29 -9 -14 -11 -25 -5 -29 6 -3 10 -2
10 4 0 6 7 7 17 4 11 -4 14 -3 9 5 -5 8 0 12 13 12 11 0 23 -4 26 -10 3 -6 -1
-7 -9 -4 -9 3 -16 1 -16 -5 0 -15 37 -14 42 1 3 7 11 9 24 3 10 -4 26 -7 34
-6 12 1 11 -1 -2 -12 -23 -18 -23 -30 0 -18 25 13 25 13 55 2 18 -7 26 -7 22
-1 -4 6 5 9 19 8 16 -2 26 -8 26 -18 0 -21 60 -21 84 -1 25 21 19 1 -6 -22
-20 -17 -20 -19 -4 -13 12 4 23 2 28 -6 6 -10 13 -7 27 11 12 16 21 20 25 12
4 -6 2 -11 -3 -11 -6 0 -11 -5 -11 -11 0 -6 9 -8 20 -4 12 4 27 1 35 -5 12
-10 15 -10 15 -1 0 7 5 9 10 6 6 -3 10 1 10 9 0 9 5 16 11 16 6 0 9 -9 6 -20
-3 -13 0 -20 10 -20 9 0 13 6 9 15 -3 9 0 15 9 15 8 0 15 -5 15 -12 0 -6 9 -2
21 11 12 12 24 20 27 16 4 -3 0 -10 -7 -14 -20 -13 6 -26 45 -22 24 2 33 -2
36 -16 2 -11 12 -18 28 -18 15 0 24 -5 22 -13 -1 -6 5 -12 14 -12 8 0 13 4 9
9 -3 5 0 13 6 17 8 4 7 9 -2 15 -8 5 -9 9 -4 9 18 -1 47 -29 40 -39 -3 -6 1
-11 9 -11 20 0 46 38 39 59 -4 12 -3 13 5 3 5 -7 7 -24 4 -38 -2 -13 0 -24 7
-24 5 0 8 7 5 15 -4 9 0 15 10 15 9 0 16 5 16 10 0 6 12 9 28 9 18 -1 21 -3 9
-6 -18 -5 -18 -6 -1 -24 9 -10 26 -19 36 -19 18 0 18 1 4 16 -20 19 -20 22 0
41 14 15 15 14 12 -3 -2 -11 3 -19 10 -18 37 3 41 5 36 18 -3 8 0 17 7 22 8 4
10 3 5 -4 -4 -7 -1 -18 6 -26 11 -11 15 -11 29 5 16 19 17 19 22 -2 4 -15 0
-23 -14 -26 -23 -6 -24 -16 -4 -33 13 -10 15 -9 15 9 0 18 5 22 23 19 12 -2
21 -9 20 -15 -2 -7 4 -10 11 -7 8 3 12 12 10 19 -3 7 -1 16 5 20 6 3 11 2 11
-3 0 -5 10 -8 23 -7 12 2 21 7 20 13 -3 12 23 6 44 -11 8 -6 18 -4 28 7 9 9
22 16 28 16 7 0 6 -4 -3 -10 -9 -6 -10 -10 -3 -10 7 0 17 8 22 19 7 13 18 17
36 14 15 -3 25 -1 25 6 0 6 5 11 10 11 6 0 9 -6 8 -12 -3 -14 58 -13 76 1 9 7
71 8 71 1 0 -1 10 -3 22 -4 16 -2 23 4 28 23 6 23 8 24 16 8 6 -9 7 -22 4 -27
-3 -6 1 -10 9 -10 9 0 15 5 14 12 -4 16 55 45 60 30 6 -19 20 -14 27 8 4 11
12 20 18 19 7 -1 20 1 31 6 12 5 21 3 27 -6 8 -12 11 -11 20 3 7 13 21 17 49
16 21 -1 47 5 56 13 13 11 18 11 21 2 7 -21 22 -15 16 6 -4 17 12 28 50 35 4
0 12 8 17 16 8 13 10 12 10 -2 0 -10 7 -18 15 -18 8 0 15 7 15 16 0 16 27 43
43 44 4 0 12 -12 17 -26 6 -14 15 -22 20 -19 6 4 8 11 5 16 -4 5 4 9 16 9 12
0 19 3 16 7 -4 3 -2 12 4 20 14 16 61 17 77 1 9 -9 12 -8 12 5 0 9 -5 17 -11
17 -6 0 -4 7 5 15 8 9 12 23 9 32 -4 11 -3 14 5 9 7 -4 18 -4 25 1 6 4 17 8
22 9 6 0 16 2 23 2 6 1 12 10 12 20 1 15 2 15 13 1 14 -19 37 -13 56 13 8 12
21 18 32 15 12 -3 19 0 19 8 0 20 42 47 54 35 14 -14 36 -12 36 3 0 8 7 14 14
14 22 0 85 46 79 57 -3 5 5 17 18 27 22 18 23 20 7 33 -10 7 -18 16 -18 20 0
4 12 -2 26 -13 28 -22 74 -29 74 -11 0 6 -4 10 -9 10 -5 0 -11 10 -14 23 -6
20 -4 20 19 -6 21 -24 30 -23 25 6 0 4 4 7 10 7 7 0 17 7 24 17 11 15 14 14
33 -5 25 -25 47 -29 38 -7 -3 8 0 15 5 15 6 0 9 9 6 19 -3 13 0 18 8 15 7 -3
20 2 29 11 15 15 16 15 16 -2 0 -15 2 -16 10 -3 5 8 15 15 22 15 7 0 17 10 23
23 11 26 21 28 41 7 17 -17 39 -21 29 -5 -9 14 6 61 19 59 28 -3 47 2 41 11
-5 8 -11 8 -19 1 -9 -7 -17 -5 -28 8 -13 15 -13 21 -2 36 13 17 14 17 14 2 0
-10 8 -17 20 -17 11 0 20 -5 20 -11 0 -6 11 3 25 19 14 17 25 33 25 36 0 13
-28 5 -34 -9 -8 -22 -23 -18 -29 6 -6 20 -3 21 44 16 40 -5 49 -3 49 9 0 11
-6 13 -20 9 -11 -3 -20 -2 -20 4 0 5 15 11 33 13 29 3 32 6 29 31 -2 17 1 26
7 23 5 -3 11 -1 13 5 3 8 9 6 20 -4 18 -18 28 -13 28 15 0 11 7 18 20 18 12 0
24 10 30 24 11 29 28 41 59 41 26 0 38 30 19 52 -5 7 -8 18 -5 25 4 8 6 7 6
-4 2 -34 35 -13 42 26 4 18 5 19 21 3 19 -19 33 -23 23 -6 -4 6 2 13 14 16 12
3 21 12 21 19 0 13 13 19 34 15 5 -1 6 5 3 14 -4 8 -2 15 3 15 5 0 12 11 16
24 3 13 15 26 26 29 14 4 18 2 14 -8 -3 -9 0 -12 9 -9 10 4 11 12 5 28 -9 25
12 62 29 51 14 -8 14 1 0 26 -10 20 -10 20 15 4 31 -20 57 -13 73 20 13 30 3
33 -15 5 -15 -24 -34 -27 -25 -3 4 11 3 14 -5 9 -17 -10 -15 3 2 20 8 8 20 13
27 12 6 -2 14 3 17 11 3 9 0 11 -8 6 -7 -4 -4 4 5 19 10 15 20 25 22 22 3 -3
15 4 26 15 17 16 19 22 8 28 -9 6 -10 11 -2 15 6 4 11 2 11 -4 0 -6 5 -8 10
-5 15 9 12 36 -7 59 -18 21 -18 21 5 2 12 -11 25 -16 29 -13 3 4 2 7 -3 7 -5
1 5 8 21 16 17 8 21 12 10 9 -19 -5 -19 -4 -1 9 11 9 15 20 10 28 -5 9 -2 8
11 -2 17 -14 18 -13 12 3 -8 21 33 85 51 79 15 -5 15 3 2 28 -8 15 -6 21 10
30 11 6 20 17 20 25 0 8 8 15 19 15 19 0 34 32 21 47 -7 8 23 43 38 43 4 0 7
6 7 13 1 22 15 36 33 30 16 -6 16 -5 1 13 -18 22 -14 54 7 54 8 0 14 10 14 24
0 33 18 43 35 20 13 -18 14 -16 15 14 0 22 8 41 25 56 21 20 23 25 10 30 -13
5 -13 8 5 26 11 11 24 20 30 20 5 0 8 26 6 60 -3 40 -1 58 7 53 7 -4 8 4 4 25
-6 27 -4 32 13 32 17 0 19 5 14 24 -8 32 3 66 22 66 8 0 13 6 11 13 -1 6 3 11
8 10 6 -1 12 10 13 24 1 14 10 32 20 39 16 13 16 13 -2 14 -12 0 -16 5 -12 15
3 8 1 15 -5 15 -6 0 -5 9 2 22 l12 22 9 -24 c8 -23 10 -23 19 -7 6 9 21 17 34
17 13 0 27 5 30 10 10 16 -16 42 -34 35 -11 -3 -10 -1 3 10 11 8 29 12 43 9
26 -7 28 -2 12 27 -7 13 -14 17 -22 11 -7 -4 -22 -9 -33 -10 -17 0 -21 4 -17
19 3 12 0 19 -8 19 -11 0 -11 2 1 10 12 8 11 12 -8 30 -27 25 -28 42 -3 64 15
13 20 14 24 4 3 -8 6 -6 6 6 1 16 -4 18 -34 13 -46 -7 -45 8 1 23 33 11 36 15
32 45 -2 21 0 31 8 28 16 -6 35 22 28 41 -4 11 -14 15 -28 11 -11 -2 -16 -2
-9 1 9 4 9 11 1 30 -10 20 -8 27 8 39 10 8 27 12 37 9 9 -3 17 -1 17 5 0 6
-12 13 -27 17 -39 9 -56 32 -38 50 7 8 21 14 29 14 10 0 16 9 16 21 0 17 -6
20 -32 19 -48 -3 -55 -1 -38 10 17 11 82 2 91 -12 3 -5 9 -3 12 6 5 13 -1 16
-28 16 -19 0 -35 5 -35 10 0 6 7 10 15 10 8 0 24 9 35 20 11 11 20 17 20 14 0
-3 7 1 15 10 8 8 15 17 15 20 0 3 -7 6 -15 6 -8 0 -15 5 -15 10 0 6 -10 10
-23 10 -16 0 -23 6 -23 20 0 11 4 20 8 20 4 0 8 7 8 16 0 12 -6 15 -23 10 -16
-4 -26 0 -34 13 -15 23 -7 32 22 25 13 -3 26 -1 29 5 4 6 21 11 38 11 27 0 30
3 26 25 -4 21 -1 25 19 25 36 0 23 25 -13 26 -16 0 -40 4 -53 8 -39 13 -8 29
69 33 l70 4 0 -31 c0 -16 4 -30 9 -30 15 0 22 18 9 22 -17 6 0 28 21 28 23 0
56 36 42 44 -6 4 -8 13 -4 21 4 13 -2 17 -23 14 -4 0 -11 5 -15 13 -6 9 -9 5
-9 -14 0 -14 6 -29 13 -32 6 -3 1 -3 -12 0 -14 4 -37 7 -53 8 -40 2 -40 20 0
24 57 6 32 27 -27 24 -28 -2 -51 1 -51 6 0 13 133 41 147 30 13 -10 63 0 63
13 0 5 -4 9 -9 9 -19 0 -4 53 18 64 l22 12 -25 23 c-19 18 -31 22 -55 16 -24
-5 -30 -4 -26 7 4 9 22 14 54 15 57 1 93 11 86 24 -4 5 -17 9 -31 9 -15 0 -24
6 -24 15 0 33 -82 -2 -110 -47 -11 -18 -21 -27 -21 -20 -3 23 -4 27 -20 49 -9
13 -18 21 -20 19 -2 -2 -24 0 -49 4 -37 6 -41 9 -23 15 13 4 21 11 18 15 -3 5
3 11 12 14 21 7 125 2 139 -6 26 -16 71 -18 83 -4 17 20 -1 29 -63 31 -42 1
-50 4 -48 18 2 14 -5 17 -40 18 l-43 1 45 9 c37 7 47 6 57 -7 7 -9 18 -14 26
-11 8 3 19 1 23 -3 13 -13 94 10 94 26 0 8 -7 14 -15 14 -8 0 -15 -5 -15 -11
0 -14 -42 0 -56 19 -10 14 -19 14 -60 5 -33 -8 -75 -9 -127 -3 -43 5 -84 7
-92 3 -16 -5 -22 22 -7 31 5 3 62 6 127 7 86 1 126 6 142 16 12 8 27 12 33 8
5 -3 10 -3 11 2 0 4 3 20 5 36 3 15 0 27 -6 27 -5 0 -10 -7 -10 -16 0 -13 -12
-15 -79 -12 -51 2 -76 7 -70 13 5 5 9 17 9 27 0 10 5 18 10 18 6 0 10 7 10 15
0 25 -17 17 -39 -20 -15 -25 -27 -35 -46 -35 -32 0 -32 6 3 24 23 12 25 15 9
21 -9 4 -23 3 -30 -2 -6 -6 -27 -13 -45 -17 -28 -5 -35 -3 -39 14 -3 10 -12
21 -22 23 -9 3 1 5 21 6 20 0 41 7 45 14 10 16 58 37 83 37 10 0 23 7 28 16 6
11 17 15 31 11 11 -3 23 -1 26 4 3 4 -4 11 -17 13 -56 11 -126 18 -166 17 -58
-3 -83 6 -75 26 4 9 -1 21 -12 29 -18 13 -17 14 7 14 18 0 29 -7 33 -20 7 -24
21 -26 28 -5 6 15 -41 55 -65 55 -9 0 -14 12 -14 35 0 24 5 35 14 35 11 0 12
3 4 13 -6 7 -9 23 -5 35 3 13 1 22 -6 22 -6 0 -14 18 -17 40 -4 22 -10 38 -14
35 -13 -8 -70 16 -64 27 4 6 10 5 15 -3 11 -18 24 14 15 37 -8 21 1 34 19 28
8 -4 12 -10 9 -15 -3 -5 -10 -6 -16 -3 -7 4 -8 2 -4 -4 4 -6 13 -9 20 -6 8 3
16 -4 20 -20 6 -23 42 -53 52 -43 7 7 -26 65 -41 71 -8 3 -15 12 -15 21 0 9
-9 15 -25 15 -19 0 -26 7 -31 28 -4 15 -11 32 -15 38 -10 12 -41 137 -44 174
-1 14 -5 33 -9 43 -5 9 -6 24 -2 32 3 8 0 14 -6 12 -6 -1 -11 8 -13 21 -1 13
4 22 12 22 7 0 13 -5 13 -12 0 -6 2 -9 5 -6 12 11 -8 38 -29 38 -17 0 -18 2
-6 10 10 6 11 10 3 10 -7 0 -13 7 -13 15 0 9 -6 18 -14 21 -14 6 -18 44 -5 44
12 0 -6 53 -19 58 -7 2 -12 -1 -12 -8 0 -6 5 -8 10 -5 6 3 10 2 10 -4 0 -14
-18 -23 -24 -13 -3 5 -7 25 -10 45 -2 19 -14 45 -25 56 -11 11 -18 27 -15 36
4 9 0 15 -9 15 -13 0 -19 11 -27 48 -1 4 -7 14 -14 22 -21 25 -39 78 -32 96 4
12 2 15 -9 10 -9 -3 -15 0 -15 8 0 7 -7 19 -15 26 -8 7 -15 18 -14 24 3 25 -2
36 -16 36 -8 0 -15 6 -15 14 0 8 -4 16 -8 18 -4 2 -34 46 -67 98 -32 52 -77
125 -100 162 -35 55 -92 128 -150 192 -6 6 -30 36 -55 66 -67 82 -262 268
-425 405 -130 109 -367 256 -600 374 -424 213 -883 339 -1350 371 -130 9 -445
11 -560 3z m100 -54 c-38 -4 -88 -10 -110 -13 -22 -3 -78 -11 -125 -16 -155
-18 -405 -71 -570 -120 -144 -43 -461 -167 -557 -219 -10 -5 -49 -24 -88 -41
-135 -60 -346 -196 -465 -298 -367 -317 -702 -735 -898 -1124 -133 -262 -174
-367 -231 -597 -34 -134 -47 -166 -37 -87 31 229 157 557 324 842 104 179 103
178 196 304 189 259 463 551 656 701 423 328 1085 592 1630 649 63 7 142 16
175 20 33 4 85 7 115 7 54 0 54 0 -15 -8z m685 -20 c584 -61 1312 -378 1760
-767 105 -91 270 -255 345 -342 100 -117 170 -208 232 -300 125 -188 162 -263
70 -144 -58 76 -147 202 -147 209 0 3 -6 13 -14 22 -154 191 -225 273 -296
347 -85 88 -317 286 -447 381 -292 214 -761 418 -1178 511 -145 33 -345 70
-420 79 -33 4 -67 11 -75 16 -9 4 1 6 25 4 22 -3 87 -10 145 -16z m-305 -164
c28 -15 57 -32 65 -39 8 -6 32 -20 53 -29 21 -9 35 -22 32 -27 -3 -6 -2 -10 4
-10 5 0 29 -19 53 -43 38 -37 127 -114 181 -157 51 -40 121 -109 116 -114 -3
-4 -35 15 -70 41 -151 113 -399 293 -459 334 -36 24 -67 47 -70 50 -3 4 -16
10 -30 14 l-25 9 25 6 c31 8 61 0 125 -35z m-267 -6 c-7 -5 -25 -9 -40 -9 -20
0 -26 -4 -22 -14 3 -8 -3 -19 -15 -26 -32 -16 -28 15 5 45 30 28 40 31 46 13
3 -8 10 -3 18 12 13 22 15 23 18 6 2 -10 -2 -22 -10 -27z m-113 -69 c-3 -5
-13 -10 -21 -10 -8 0 -14 -4 -14 -10 0 -5 -5 -10 -10 -10 -6 0 -5 8 2 20 7 11
21 20 31 20 10 0 15 -4 12 -10z m-711 -162 c-21 -88 -21 -138 0 -240 20 -99
20 -143 -3 -193 -16 -37 -18 -38 -25 -17 -6 19 -9 20 -22 8 -8 -8 -13 -23 -12
-33 3 -33 -2 -54 -11 -49 -5 3 -11 -11 -15 -32 -3 -20 -17 -54 -31 -74 -14
-20 -25 -44 -25 -53 0 -9 -5 -15 -11 -13 -17 6 -83 -64 -69 -72 9 -6 9 -13 1
-29 -7 -11 -15 -21 -19 -21 -4 0 -30 -22 -59 -49 -89 -83 -124 -102 -165 -90
-18 5 -28 3 -31 -4 -3 -9 -10 -9 -25 0 -18 11 -24 9 -40 -12 -11 -14 -24 -25
-30 -25 -5 0 -13 -7 -16 -16 -3 -8 -11 -12 -17 -9 -5 4 -19 -1 -29 -10 -10 -9
-23 -14 -28 -11 -5 3 -9 -1 -8 -10 1 -17 -25 -32 -157 -93 -89 -41 -161 -85
-252 -153 -27 -21 -60 -38 -73 -38 -13 0 -25 -8 -29 -17 -3 -10 -20 -31 -37
-48 -37 -35 -126 -139 -126 -148 0 -3 -11 -17 -25 -31 -14 -14 -25 -32 -25
-40 0 -9 -9 -33 -20 -54 -17 -32 -19 -44 -10 -67 10 -25 7 -32 -21 -61 -17
-18 -28 -37 -25 -43 4 -7 -1 -11 -12 -11 -11 0 -22 7 -25 14 -4 10 -1 13 8 9
10 -3 18 5 25 22 5 14 17 33 25 41 19 19 19 34 1 34 -15 0 -86 -62 -86 -75 0
-4 -13 -20 -30 -35 -16 -15 -30 -33 -30 -39 0 -6 -4 -11 -10 -11 -12 0 -6 33
37 200 62 242 101 345 171 447 85 125 220 248 349 319 38 20 90 50 116 67 49
30 75 33 35 3 -68 -49 -67 -47 -13 -42 34 3 56 0 69 -10 30 -22 60 -17 135 20
64 33 69 34 86 18 17 -16 17 -16 12 0 -3 10 -2 20 3 23 6 4 10 1 10 -4 0 -6 4
-11 10 -11 5 0 7 6 4 14 -3 8 3 16 15 19 23 6 29 -8 9 -16 -10 -4 -10 -6 -1
-6 6 -1 15 4 18 9 11 17 38 12 31 -6 -5 -13 -1 -15 19 -12 13 3 26 0 29 -6 2
-6 5 -1 5 11 1 23 33 48 46 35 3 -4 11 -8 16 -8 5 -1 13 -2 19 -3 5 0 7 -8 4
-16 -4 -8 -10 -13 -14 -10 -11 7 -60 -45 -60 -62 0 -13 12 -9 60 19 8 5 27 14
43 21 15 6 27 15 27 20 0 4 5 5 10 2 6 -3 10 1 10 9 0 10 -9 16 -25 16 -26 0
-26 0 -8 24 10 13 21 22 24 20 10 -6 68 56 75 79 3 11 2 22 -3 26 -13 9 -9 64
5 69 14 4 16 41 2 62 -6 10 -10 11 -10 3 0 -7 -4 -13 -10 -13 -5 0 -10 11 -10
25 0 14 -4 25 -10 25 -15 0 -12 27 4 33 17 7 61 96 52 105 -4 3 -9 -4 -13 -16
-3 -12 -9 -22 -13 -22 -5 0 -12 -9 -15 -20 -3 -11 -12 -20 -18 -20 -7 0 -20
-8 -28 -17 -26 -29 -68 -63 -79 -63 -6 0 -10 -3 -10 -7 0 -9 -73 -60 -75 -53
-1 5 -48 -30 -85 -63 -8 -8 -51 -33 -95 -57 -44 -23 -85 -47 -92 -52 -7 -5
-18 -8 -24 -6 -7 2 10 17 37 33 163 95 372 288 427 393 52 100 68 163 66 272
-1 94 5 130 21 130 26 0 68 -27 120 -76 l59 -56 7 28 c8 37 33 115 40 126 15
25 15 -8 -2 -74z m2080 11 c4 -33 12 -72 18 -85 12 -25 28 -33 28 -13 0 6 11
25 26 41 l25 31 -7 -29 c-4 -16 -8 -63 -8 -104 0 -88 24 -143 79 -186 19 -14
35 -33 35 -40 0 -10 8 -13 26 -10 20 4 24 2 20 -10 -4 -10 3 -16 25 -21 18 -3
28 -11 25 -18 -5 -13 19 -37 47 -48 9 -3 17 -13 17 -22 0 -8 4 -15 9 -15 5 0
31 -21 58 -46 26 -25 58 -50 70 -54 15 -6 21 -15 17 -25 -4 -9 -1 -15 8 -15 7
0 21 -8 30 -17 21 -24 60 -53 70 -53 4 0 8 -7 8 -16 0 -8 5 -12 10 -9 6 3 10
1 10 -4 0 -14 -17 -14 -25 -1 -7 12 -25 13 -25 2 0 -5 39 -30 88 -57 173 -95
346 -224 418 -311 88 -105 181 -289 218 -431 14 -51 13 -54 -2 -41 -9 8 -30
19 -45 26 -15 7 -31 21 -35 33 -7 19 -10 20 -24 6 -10 -10 -20 -12 -29 -6 -8
5 -10 9 -5 9 5 0 3 6 -3 13 -6 8 -8 17 -4 20 6 6 -11 11 -29 8 -5 0 -8 6 -8
14 0 8 -6 15 -13 15 -7 0 -27 15 -43 33 -29 32 -86 81 -121 104 -70 47 -98 65
-159 101 -119 69 -143 81 -207 107 -74 31 -83 35 -170 74 -37 17 -70 31 -75
31 -4 0 -20 7 -35 15 -15 8 -43 17 -62 21 -19 3 -39 12 -46 20 -6 8 -18 14
-26 14 -8 0 -11 5 -7 11 4 7 0 9 -14 5 -15 -5 -28 3 -53 29 -19 20 -33 41 -32
46 2 5 -4 9 -12 9 -9 0 -19 8 -22 18 -11 30 -38 59 -50 55 -7 -3 -15 7 -19 21
-3 13 -11 27 -18 29 -13 5 -56 80 -56 98 0 5 -9 20 -21 32 -11 12 -23 34 -26
49 -3 15 -9 25 -14 23 -16 -11 -26 24 -36 125 -7 79 20 251 49 317 20 45 124
157 138 148 4 -3 10 -32 14 -66z m-1510 46 c-4 -8 -11 -15 -16 -15 -6 0 -5 6
2 15 7 8 14 15 16 15 2 0 1 -7 -2 -15z m446 6 c0 -5 9 -11 20 -14 14 -3 18
-10 14 -21 -6 -15 -3 -15 20 -5 21 10 29 9 44 -4 10 -10 22 -17 26 -17 4 0 16
-9 28 -20 12 -11 28 -20 35 -20 8 0 12 -4 9 -9 -3 -4 2 -15 12 -24 9 -9 43
-41 74 -71 32 -31 63 -56 69 -56 6 0 17 -7 25 -15 9 -8 21 -15 27 -15 6 0 -6
17 -26 38 -48 49 -47 62 1 26 57 -43 147 -137 147 -154 0 -8 9 -16 21 -18 16
-2 21 -11 22 -39 l2 -37 -38 37 c-36 35 -38 36 -50 17 -10 -17 -10 -20 3 -20
8 0 38 -17 66 -37 44 -31 49 -38 33 -44 -22 -7 -60 5 -57 19 1 5 -6 12 -16 15
-14 3 -17 0 -13 -19 2 -13 8 -21 13 -18 5 3 16 -2 25 -10 8 -9 12 -16 8 -16
-4 0 1 -9 11 -20 13 -15 14 -20 5 -20 -11 0 -11 -3 -2 -12 10 -10 14 -10 21 0
9 15 34 7 70 -20 25 -19 13 -25 -18 -9 -9 5 -23 6 -31 1 -22 -14 -66 11 -290
166 -52 36 -104 70 -115 75 -11 5 -56 32 -100 59 -44 27 -83 50 -86 50 -4 0
-28 10 -55 22 -27 12 -53 21 -59 19 -5 -1 -21 -3 -34 -4 -13 -1 -26 -8 -28
-14 -3 -7 4 -10 19 -7 13 3 -5 -8 -40 -25 -35 -17 -65 -31 -67 -31 -2 0 -28
-14 -57 -31 -29 -18 -59 -32 -65 -32 -7 0 -13 -4 -13 -8 0 -4 -11 -10 -24 -13
-13 -3 -31 -9 -40 -12 -9 -3 -16 -1 -16 5 0 6 10 13 23 16 13 4 31 17 41 30
11 14 24 21 33 18 13 -5 13 -3 4 16 -9 16 -18 20 -34 15 -21 -6 -21 -6 -3 9
17 12 22 12 34 1 16 -16 22 -17 42 -4 9 6 17 5 23 -3 5 -8 7 -6 5 5 -2 9 6 24
17 33 15 12 16 15 4 12 -26 -8 -12 29 18 49 21 13 27 14 34 3 4 -8 6 2 5 24
-3 37 6 48 20 25 4 -6 2 -14 -5 -16 -7 -2 -1 -10 14 -18 28 -14 50 -10 39 7
-3 5 0 17 7 25 6 8 9 17 6 20 -10 10 -27 -6 -27 -27 0 -10 -4 -19 -8 -19 -10
0 -8 39 2 63 11 22 21 22 47 -4 11 -11 23 -18 27 -15 3 4 1 11 -5 17 -6 6 -9
17 -7 24 4 10 12 10 35 2 21 -8 32 -8 41 1 9 9 6 14 -13 21 l-24 10 24 0 c19
1 23 5 19 26 -3 14 -1 25 3 25 5 0 6 7 3 15 -4 9 0 15 10 15 9 0 16 -4 16 -9z
m1575 -142 c5 -5 15 -9 21 -9 12 0 207 -124 264 -168 14 -11 35 -22 48 -26 22
-7 30 -30 13 -40 -14 -9 0 -48 15 -42 18 7 30 -14 13 -25 -8 -4 -19 -3 -26 3
-8 6 -17 8 -21 4 -4 -4 3 -16 16 -26 48 -39 203 -235 199 -252 -3 -9 0 -15 7
-12 6 2 17 -5 24 -17 8 -12 9 -18 3 -14 -6 3 -11 2 -11 -4 0 -5 5 -13 10 -16
6 -3 10 -13 10 -20 0 -12 -5 -12 -25 -3 -14 6 -25 15 -25 20 0 4 -5 8 -12 8
-6 0 -4 -8 6 -19 18 -20 57 -91 49 -91 -2 0 -14 11 -26 25 -12 14 -98 108
-192 209 -177 191 -274 273 -388 331 -37 19 -68 38 -69 42 -3 15 -33 41 -55
47 -18 6 -22 4 -17 -7 3 -8 15 -18 27 -21 12 -3 19 -8 15 -11 -12 -12 -58 19
-58 39 -1 20 -2 20 -14 4 -10 -13 -27 -18 -65 -18 -28 0 -51 2 -51 4 0 16 14
35 22 30 17 -11 88 -13 94 -3 9 15 106 7 123 -10 11 -11 30 -15 64 -13 37 2
52 -1 61 -14 7 -9 19 -14 27 -11 10 4 9 6 -3 6 -10 1 -18 6 -18 11 0 6 -8 14
-17 17 -31 11 -83 55 -77 64 3 5 -3 6 -12 2 -13 -5 -16 -3 -11 10 4 11 -1 20
-13 27 -11 6 -20 15 -20 19 0 10 80 -15 95 -30z m-3061 -44 c-4 -8 -11 -15
-16 -15 -6 0 -5 6 2 15 7 8 14 15 16 15 2 0 1 -7 -2 -15z m1206 -9 c0 -2 -7
-6 -15 -10 -8 -3 -15 -1 -15 4 0 6 7 10 15 10 8 0 15 -2 15 -4z m1820 -26 c0
-5 -5 -10 -11 -10 -5 0 -7 5 -4 10 3 6 8 10 11 10 2 0 4 -4 4 -10z m-1850 -50
c0 -5 -9 -10 -21 -10 -11 0 -17 5 -14 10 3 6 13 10 21 10 8 0 14 -4 14 -10z
m363 -56 c110 -55 224 -133 462 -317 77 -59 150 -116 162 -125 12 -9 22 -23
23 -30 0 -13 -23 -12 -120 4 -14 2 -56 7 -95 10 -100 9 -162 28 -230 73 -92
60 -131 104 -175 195 -42 89 -98 149 -148 160 -18 3 -45 -4 -82 -22 -52 -26
-58 -33 -110 -129 -30 -56 -71 -118 -90 -138 -43 -45 -109 -80 -176 -93 -27
-6 -74 -17 -104 -25 -99 -27 -131 -30 -124 -12 8 21 -8 19 -40 -6 -38 -30 -55
-13 -20 21 23 22 34 26 56 19 21 -6 26 -4 21 7 -3 8 -11 14 -19 14 -8 0 -14 5
-14 10 0 6 5 10 10 10 6 0 24 16 41 35 17 19 37 35 43 35 7 0 25 13 42 28 48
46 144 116 224 163 41 24 89 51 105 61 66 39 132 72 175 88 54 20 84 14 183
-36z m616 -246 c9 -14 8 -18 -4 -18 -8 0 -15 5 -15 10 0 6 -11 15 -25 22 -13
6 -22 14 -20 19 7 10 51 -12 64 -33z m-79 28 c0 -3 -4 -8 -10 -11 -5 -3 -10
-1 -10 4 0 6 5 11 10 11 6 0 10 -2 10 -4z m140 -127 c0 -5 -12 -9 -26 -9 -22
0 -24 2 -14 14 12 15 40 11 40 -5z m-89 1 c10 0 19 -7 19 -15 0 -8 8 -15 18
-16 10 0 12 -3 4 -6 -6 -2 -10 -9 -6 -14 3 -5 0 -9 -5 -9 -6 0 -11 7 -11 16 0
8 -4 12 -10 9 -5 -3 -22 6 -37 21 -20 19 -23 25 -10 20 10 -3 27 -6 38 -6z
m-1973 -107 c-2 -10 -11 -19 -20 -21 -12 -2 -15 2 -11 17 7 25 36 28 31 4z
m32 -17 c0 -3 -4 -8 -10 -11 -5 -3 -10 -1 -10 4 0 6 5 11 10 11 6 0 10 -2 10
-4z m1935 -105 c147 -37 243 -77 350 -145 51 -33 168 -119 185 -136 3 -3 50
-41 104 -84 108 -87 168 -143 185 -175 10 -17 9 -20 -4 -15 -8 4 -15 10 -15
15 0 5 -11 9 -25 9 -13 0 -35 12 -49 26 -24 26 -24 26 -31 5 -4 -12 -2 -28 4
-35 5 -6 8 -22 4 -34 -3 -13 -1 -22 6 -22 5 0 8 7 5 15 -4 10 0 15 10 15 12 0
16 -7 14 -27 -3 -25 0 -28 28 -29 34 -1 54 -10 54 -25 0 -5 -12 -6 -27 -3 -23
6 -25 4 -20 -15 7 -26 -9 -28 -23 -2 -5 11 -19 23 -30 26 -11 3 -20 13 -20 21
0 8 -10 18 -22 23 -13 5 -51 31 -85 57 -290 228 -443 315 -701 400 -98 32
-244 66 -251 58 -9 -8 37 -40 99 -70 382 -182 510 -268 688 -462 134 -144 145
-159 127 -165 -8 -4 -17 -2 -21 4 -3 6 -12 8 -20 5 -9 -3 -14 2 -14 14 0 15
-7 20 -25 20 -15 0 -25 6 -25 14 0 21 -47 69 -59 61 -18 -11 -12 -35 9 -35 13
0 18 -5 13 -15 -3 -9 3 -25 12 -35 16 -18 16 -20 2 -20 -9 0 -20 6 -24 14 -4
7 -18 16 -30 20 -20 6 -18 3 10 -27 38 -40 89 -103 100 -126 5 -9 -22 16 -60
55 -73 77 -206 197 -259 234 -174 121 -313 198 -479 266 -195 80 -461 97 -720
48 -60 -11 -231 -89 -339 -154 -109 -66 -356 -254 -356 -271 0 -5 -7 -9 -17
-9 -11 0 -4 11 21 33 21 17 68 61 104 97 37 35 70 64 75 62 4 -1 7 3 7 9 0 6
-7 9 -15 6 -8 -4 -17 -2 -20 3 -4 6 -1 10 6 10 7 0 5 7 -7 18 -17 17 -21 17
-46 3 -18 -11 -26 -22 -22 -33 2 -9 0 -19 -6 -23 -5 -3 -10 1 -10 9 0 23 -14
20 -49 -10 -44 -37 -38 -8 7 33 48 43 222 170 287 209 63 38 220 114 254 123
13 4 27 13 29 20 3 8 0 11 -6 7 -17 -10 -1 38 17 51 9 6 13 15 9 19 -4 4 -14
2 -22 -5 -8 -7 -61 -24 -118 -40 -56 -15 -121 -35 -143 -45 -116 -50 -224
-103 -245 -120 -39 -32 -98 -59 -124 -57 -28 1 -56 -13 -56 -30 0 -5 11 -2 25
7 23 15 25 15 19 0 -3 -9 -11 -16 -16 -16 -5 0 -23 -9 -39 -21 -16 -11 -29
-17 -29 -13 0 4 7 12 17 19 17 13 9 40 -9 29 -7 -5 -9 -2 -5 8 7 21 -3 31 -19
18 -6 -6 -16 -10 -20 -9 -18 4 -88 -38 -151 -91 -7 -6 -13 -7 -13 -2 0 15 207
182 222 179 7 -2 9 -2 5 1 -13 7 36 43 50 37 8 -2 12 -1 9 4 -3 5 2 15 11 22
13 11 17 11 20 2 7 -20 33 -15 33 5 0 10 12 27 28 38 44 33 164 90 243 117 82
28 188 33 809 43 167 3 305 6 306 7 1 1 53 2 116 1 81 -1 139 -7 203 -23z
m-2159 -166 c-11 -8 -29 -15 -40 -15 -20 0 -20 0 0 15 10 8 28 14 39 14 20 0
20 0 1 -14z m4196 -132 c42 -69 58 -98 64 -115 4 -10 13 -18 20 -18 8 0 14 -7
14 -16 0 -8 5 -12 10 -9 13 8 13 -8 -1 -22 -7 -7 -6 -15 5 -26 11 -11 13 -22
7 -45 -5 -17 -7 -33 -4 -36 3 -3 7 -20 8 -38 2 -18 8 -34 14 -36 6 -2 8 -9 4
-15 -13 -21 -12 -51 5 -102 8 -27 17 -59 18 -70 1 -11 7 -38 13 -60 6 -22 11
-54 11 -72 0 -17 5 -33 12 -35 9 -3 9 -6 0 -12 -8 -4 -16 2 -22 18 -5 14 -15
26 -21 26 -7 0 -9 3 -6 7 4 3 -2 21 -13 38 -27 44 -200 568 -207 628 -6 45 -5
47 20 47 19 0 32 -10 49 -37z m-5530 -98 c-9 -19 -20 -35 -24 -35 -11 0 -10
14 3 27 6 6 12 19 14 29 2 11 4 20 4 22 1 2 5 1 10 -2 5 -3 2 -22 -7 -41z
m1621 28 c-7 -3 -10 -10 -7 -17 7 -18 -23 -29 -44 -16 -15 9 -14 10 6 16 12 3
22 12 22 20 0 8 6 11 17 7 10 -4 12 -8 6 -10z m-83 -48 c0 -8 5 -15 10 -15 6
0 10 -4 10 -10 0 -15 -26 -12 -40 5 -12 15 -6 35 11 35 5 0 9 -7 9 -15z m90 1
c0 -2 -8 -10 -17 -17 -16 -13 -17 -12 -4 4 13 16 21 21 21 13z m-146 -52 c26
-10 18 -20 -14 -19 -17 0 -30 5 -30 12 0 14 19 17 44 7z m396 -75 c0 -11 -4
-18 -10 -14 -5 3 -7 12 -3 20 7 21 13 19 13 -6z m35 11 c-3 -5 -11 -10 -16
-10 -6 0 -7 5 -4 10 3 6 11 10 16 10 6 0 7 -4 4 -10z m-165 -28 c0 -5 -15 -19
-32 -32 -33 -24 -32 -21 7 27 12 14 25 17 25 5z m85 -12 c3 -5 2 -10 -4 -10
-5 0 -13 5 -16 10 -3 6 -2 10 4 10 5 0 13 -4 16 -10z m2528 -34 c4 -10 0 -12
-14 -9 -10 3 -16 9 -13 14 8 13 21 11 27 -5z m-33 -147 c0 -6 -4 -7 -10 -4 -5
3 -10 11 -10 16 0 6 5 7 10 4 6 -3 10 -11 10 -16z m870 -15 c0 -8 -4 -12 -10
-9 -5 3 -10 10 -10 16 0 5 5 9 10 9 6 0 10 -7 10 -16z m-1102 -39 c25 -29 29
-47 7 -39 -8 4 -15 11 -15 17 0 6 -7 19 -17 29 -9 10 -12 18 -6 18 5 0 19 -11
31 -25z m-18 -41 c0 -8 -4 -12 -10 -9 -5 3 -10 10 -10 16 0 5 5 9 10 9 6 0 10
-7 10 -16z m20 -64 c0 -5 -2 -10 -4 -10 -3 0 -8 5 -11 10 -3 6 -1 10 4 10 6 0
11 -4 11 -10z m-1278 -82 c-9 -9 -12 -7 -12 12 0 19 3 21 12 12 9 -9 9 -15 0
-24z m-74 -14 c-14 -14 -16 -14 -22 1 -4 13 -2 16 9 11 8 -3 15 0 15 6 0 6 3
8 7 4 4 -3 0 -13 -9 -22z m56 -28 c21 8 22 -19 1 -36 -12 -10 -13 -16 -3 -27
10 -12 9 -18 -7 -30 -20 -14 -20 -14 -1 -29 11 -8 28 -14 38 -14 11 0 15 -5
12 -15 -4 -9 0 -15 10 -15 9 0 16 -4 16 -10 0 -6 -9 -6 -26 0 -32 12 -37 12
-29 1 3 -5 0 -13 -6 -16 -17 -11 -21 1 -8 24 15 23 5 41 -13 23 -14 -14 -32
-16 -23 -3 3 5 -4 16 -16 24 -20 15 -10 35 11 22 6 -3 7 1 4 9 -4 9 -1 16 6
16 7 0 10 6 7 14 -3 8 -1 17 6 19 8 3 7 10 -5 24 -21 23 -24 40 -4 24 7 -6 21
-9 30 -5z m121 4 c3 -5 -1 -10 -9 -10 -9 0 -16 5 -16 10 0 6 4 10 9 10 6 0 13
-4 16 -10z m98 -7 c-8 -3 -11 -14 -7 -29 8 -30 -4 -32 -15 -1 -8 22 2 37 24
36 6 0 4 -3 -2 -6z m-130 -47 c-6 -28 -52 -40 -71 -20 -16 17 1 26 33 18 19
-5 25 -2 25 10 0 9 4 16 9 16 4 0 6 -11 4 -24z m52 5 c3 -5 1 -12 -5 -16 -5
-3 -10 1 -10 9 0 18 6 21 15 7z m-265 -10 c0 -6 -4 -13 -10 -16 -5 -3 -10 1
-10 9 0 9 5 16 10 16 6 0 10 -4 10 -9z m78 -9 c2 -7 -6 -12 -17 -12 -29 0 -32
-41 -4 -72 8 -9 10 -19 5 -22 -9 -6 -42 21 -72 58 -14 18 -13 18 8 12 12 -4
22 -4 21 1 -4 21 2 33 16 33 8 0 15 5 15 11 0 14 23 6 28 -9z m239 -12 c3 -11
9 -18 13 -15 5 3 12 0 15 -6 5 -6 0 -10 -11 -8 -11 1 -27 -1 -36 -5 -19 -8
-38 -1 -38 15 0 6 9 7 22 3 19 -6 21 -5 11 8 -7 8 -10 18 -6 21 12 13 25 7 30
-13z m-380 -42 c-3 -8 -6 -5 -6 6 -1 11 2 17 5 13 3 -3 4 -12 1 -19z m277 -11
c7 -6 6 -7 -4 -4 -8 2 -16 12 -17 23 -2 13 -1 15 4 4 3 -8 11 -19 17 -23z
m101 -26 c-3 -6 -11 -11 -17 -11 -6 0 -6 6 2 15 14 17 26 13 15 -4z m-381 -6
c3 -8 10 -15 17 -15 6 0 9 7 5 15 -4 10 1 15 14 15 23 0 27 -28 5 -36 -8 -4
-23 -3 -32 2 -10 4 -24 6 -30 5 -8 -1 -10 4 -7 14 8 19 20 19 28 0z m351 -14
c3 -5 1 -12 -5 -16 -5 -3 -10 -1 -10 6 0 8 -4 8 -15 -1 -9 -8 -15 -8 -15 -2 0
9 15 19 32 21 4 1 9 -3 13 -8z m-260 -11 c-3 -5 -10 -10 -16 -10 -5 0 -9 5 -9
10 0 6 7 10 16 10 8 0 12 -4 9 -10z m75 6 c0 -3 -4 -8 -10 -11 -5 -3 -10 -1
-10 4 0 6 5 11 10 11 6 0 10 -2 10 -4z m270 0 c0 -3 -4 -8 -10 -11 -5 -3 -10
-1 -10 4 0 6 5 11 10 11 6 0 10 -2 10 -4z m-4 -57 c10 -8 13 -30 10 -83 -14
-245 -27 -639 -24 -741 l3 -120 129 145 c71 80 194 221 275 314 80 92 180 207
222 255 41 48 83 98 92 111 l16 23 73 -51 c40 -28 101 -70 136 -94 34 -23 62
-47 62 -53 0 -6 -48 -59 -107 -117 -143 -141 -268 -269 -333 -343 -30 -33
-102 -112 -161 -175 -59 -63 -123 -135 -143 -159 l-37 -44 28 -30 c15 -16 125
-112 243 -214 118 -102 298 -267 400 -367 102 -100 201 -194 220 -210 l35 -27
-45 6 c-174 25 -271 67 -480 208 -144 97 -434 317 -560 425 -58 50 -106 89
-107 88 -4 -3 -5 -437 -1 -441 7 -7 148 -14 274 -15 l130 0 42 -36 c42 -36 58
-64 24 -43 -14 9 -23 9 -38 0 -16 -10 -16 -12 -1 -7 11 3 17 0 17 -9 0 -10 11
-15 33 -15 20 0 41 -8 51 -19 16 -17 15 -19 -6 -34 -13 -9 -18 -16 -11 -16 6
-1 14 3 18 9 7 11 34 2 54 -17 18 -18 15 -20 -46 -26 -33 -3 -58 -1 -69 7 -13
10 -24 10 -45 3 -20 -8 -38 -7 -68 3 -32 10 -43 10 -55 1 -15 -12 -64 -13
-213 -4 -70 5 -83 8 -89 25 -3 12 -11 17 -21 14 -11 -5 -13 -1 -8 15 5 15 4
19 -4 15 -6 -4 -11 -14 -11 -23 0 -13 -3 -13 -15 -3 -11 9 -15 9 -15 1 0 -7
-10 -5 -27 6 -15 10 -24 13 -21 8 4 -6 -2 -16 -13 -23 -16 -10 -19 -9 -19 3 0
8 -6 15 -13 15 -7 0 -18 9 -25 20 -7 12 -18 20 -25 19 -45 -6 -45 -5 -51 144
-3 78 -8 463 -10 856 -3 531 -8 716 -16 721 -8 5 -8 10 -2 14 5 3 8 28 7 56
-1 27 2 50 6 50 5 0 9 -4 9 -10 0 -5 5 -10 11 -10 5 0 7 5 4 10 -3 6 0 10 9
10 8 0 16 -5 18 -12 5 -13 54 -14 155 -3 35 4 60 11 58 16 -7 11 54 -7 71 -22z
m-2381 -62 c12 -70 93 -358 274 -972 94 -316 171 -587 191 -670 12 -49 24 -99
26 -110 5 -20 5 -20 -10 -1 -9 11 -16 30 -16 42 0 13 -4 26 -10 29 -5 3 -10
14 -10 24 0 41 -50 105 -67 87 -8 -8 7 -26 21 -26 8 0 12 -10 10 -26 -1 -15 4
-34 12 -42 9 -8 11 -18 6 -21 -5 -3 -12 -13 -15 -21 -5 -10 -6 -8 -4 5 3 23
-35 65 -58 65 -9 0 -13 -4 -10 -10 3 -5 1 -10 -5 -10 -7 0 -9 7 -6 16 3 9 6
20 6 25 0 5 6 9 14 9 12 0 12 5 -1 32 -15 29 -17 30 -24 11 -9 -25 -39 -39
-39 -17 0 12 -4 12 -20 4 -14 -7 -20 -7 -20 0 0 5 -7 10 -15 10 -19 0 -20 4
14 -123 30 -112 23 -142 -10 -47 -11 30 -40 128 -65 216 l-46 161 -61 7 c-33
3 -131 6 -217 6 l-157 0 -18 -62 c-11 -35 -30 -88 -42 -118 -21 -48 -23 -51
-19 -20 2 19 11 61 19 93 11 41 12 57 4 57 -7 0 -4 5 6 11 9 5 17 18 17 27 -1
13 -6 11 -25 -10 -15 -18 -26 -24 -31 -17 -3 6 -1 15 6 19 9 5 9 9 1 14 -19
12 -1 26 25 20 20 -5 24 -2 24 15 0 18 -5 21 -37 20 -21 -2 -51 1 -67 6 -25 7
-28 6 -23 -9 4 -9 2 -16 -3 -16 -6 0 -10 -8 -10 -18 0 -10 -5 -23 -11 -29 -13
-13 -4 -33 17 -33 25 0 15 -20 -14 -26 -32 -7 -38 -17 -102 -199 -56 -159 -68
-185 -85 -185 -8 0 -15 2 -15 4 0 3 21 62 46 133 74 208 127 365 199 588 122
382 250 726 409 1098 20 46 32 41 41 -16z m872 -354 c-4 -214 -9 -498 -12
-633 -3 -135 -7 -334 -9 -443 l-4 -197 190 2 189 3 -1 355 c-1 195 -3 538 -5
763 -4 453 -9 417 65 431 56 11 264 46 273 46 5 0 6 -12 3 -27 -3 -16 -8 -95
-11 -178 -2 -82 -7 -179 -10 -215 -2 -36 -7 -171 -10 -300 -3 -129 -8 -322
-11 -429 -5 -158 -4 -195 7 -202 8 -5 78 -9 157 -9 78 0 142 -3 142 -7 -1 -26
-31 -187 -36 -192 -3 -3 -120 -6 -259 -6 -186 0 -257 -3 -266 -12 -10 -10 -9
-13 2 -18 8 -3 124 -6 259 -7 l245 -3 0 -45 c-1 -46 -14 -172 -19 -177 -4 -5
-116 -3 -231 3 -55 3 -138 5 -185 5 -59 0 -77 3 -60 9 27 9 20 10 -50 13 -58
3 -78 14 -54 31 15 12 14 14 -14 24 -35 12 -57 -4 -28 -20 9 -5 13 -14 10 -20
-4 -6 -2 -13 4 -17 6 -4 -18 -7 -53 -6 -56 0 -69 4 -96 28 -18 15 -39 25 -47
22 -10 -3 -12 0 -8 10 3 8 1 15 -4 15 -6 0 -10 7 -10 15 0 8 -4 15 -9 15 -14
0 -33 -28 -26 -40 3 -5 0 -10 -8 -10 -27 0 -26 13 3 38 37 32 38 46 5 38 -14
-4 -25 -2 -25 4 0 5 -7 10 -15 10 -8 0 -15 -5 -15 -10 0 -6 7 -13 15 -16 8 -4
15 -12 15 -19 0 -21 -37 -6 -44 18 -6 22 -6 22 -24 2 -20 -24 -67 -27 -67 -5
0 8 4 18 9 22 6 4 7 11 2 15 -4 4 -16 -2 -26 -15 -13 -15 -20 -18 -24 -10 -3
10 -9 8 -19 -4 -8 -10 -22 -18 -33 -18 -14 0 -15 3 -6 12 18 18 14 30 -7 23
-34 -10 -44 225 -45 1010 l-1 700 50 6 c28 3 95 7 149 7 l99 2 -6 -387z m4617
192 c-4 -8 -8 -15 -10 -15 -2 0 -4 7 -4 15 0 8 4 15 10 15 5 0 7 -7 4 -15z
m-6381 -50 c-3 -9 -8 -14 -10 -11 -3 3 -2 9 2 15 9 16 15 13 8 -4z m5403 -10
c173 -33 362 -157 481 -316 53 -70 125 -213 155 -309 20 -66 23 -94 23 -240
-1 -147 -3 -173 -24 -235 -76 -225 -209 -388 -376 -462 -117 -52 -160 -63
-260 -70 -73 -5 -106 -2 -174 16 -302 76 -535 306 -627 618 -38 131 -45 344
-15 463 30 124 88 234 166 318 174 188 404 264 651 217z m-5546 -325 c0 -5 -4
-10 -10 -10 -5 0 -10 5 -10 10 0 6 5 10 10 10 6 0 10 -4 10 -10z m6630 -149
c0 -5 -7 -11 -15 -15 -15 -5 -20 5 -8 17 9 10 23 9 23 -2z m145 -91 c3 -5 1
-10 -4 -10 -6 0 -11 5 -11 10 0 6 2 10 4 10 3 0 8 -4 11 -10z m5 -126 c0 -10
6 -14 15 -11 8 4 17 2 20 -2 9 -15 -24 -21 -50 -9 -27 12 -32 24 -12 31 22 9
27 7 27 -9z m116 -112 c1 -13 -5 -22 -13 -22 -8 0 -11 5 -8 11 4 6 -3 13 -16
16 -22 6 -22 7 -3 14 27 11 39 5 40 -19z m-124 -130 c-20 -6 -83 8 -77 17 3 5
24 4 47 -2 23 -6 37 -12 30 -15z m-7147 -32 c3 -5 1 -10 -4 -10 -6 0 -11 5
-11 10 0 6 2 10 4 10 3 0 8 -4 11 -10z m7045 -104 c0 -2 -7 -7 -16 -10 -8 -3
-12 -2 -9 4 6 10 25 14 25 6z m-6075 -26 c3 -5 1 -10 -4 -10 -6 0 -11 5 -11
10 0 6 2 10 4 10 3 0 8 -4 11 -10z m-5 -66 c0 -14 -3 -14 -15 -4 -8 7 -15 14
-15 16 0 2 7 4 15 4 8 0 15 -7 15 -16z m-385 -42 c-2 -2 -12 5 -23 16 -11 11
-18 23 -15 26 3 3 14 -5 23 -17 10 -12 17 -23 15 -25z m6451 -7 c-22 -17 -46
-20 -46 -6 0 10 22 18 50 20 11 0 10 -4 -4 -14z m32 -47 c9 -9 12 -9 12 0 0 7
6 12 12 12 7 0 4 -9 -8 -20 -20 -20 -20 -20 -59 -1 l-40 20 36 1 c19 0 40 -5
47 -12z m-6953 -148 c3 -6 -1 -7 -9 -4 -18 7 -21 14 -7 14 6 0 13 -4 16 -10z
m2115 -100 c0 -5 -5 -10 -11 -10 -5 0 -7 5 -4 10 3 6 8 10 11 10 2 0 4 -4 4
-10z m-375 -38 c-3 -3 -11 0 -18 7 -9 10 -8 11 6 5 10 -3 15 -9 12 -12z m378
1 c-7 -2 -19 -2 -25 0 -7 3 -2 5 12 5 14 0 19 -2 13 -5z m1272 -12 c3 -5 1
-12 -5 -16 -5 -3 -10 1 -10 9 0 18 6 21 15 7z m3485 -6 c0 -8 -2 -15 -4 -15
-2 0 -6 7 -10 15 -3 8 -1 15 4 15 6 0 10 -7 10 -15z m-5073 -17 c-3 -8 -6 -5
-6 6 -1 11 2 17 5 13 3 -3 4 -12 1 -19z m443 -8 c0 -5 -5 -10 -11 -10 -5 0 -7
5 -4 10 3 6 8 10 11 10 2 0 4 -4 4 -10z m-660 -21 c0 -5 -4 -9 -10 -9 -5 0
-10 7 -10 16 0 8 5 12 10 9 6 -3 10 -10 10 -16z m625 1 c3 -5 -1 -10 -9 -10
-9 0 -16 5 -16 10 0 6 4 10 9 10 6 0 13 -4 16 -10z m95 0 c0 -13 -20 -13 -40
0 -12 8 -9 10 13 10 15 0 27 -4 27 -10z m1270 -4 c0 -3 -4 -8 -10 -11 -5 -3
-10 -1 -10 4 0 6 5 11 10 11 6 0 10 -2 10 -4z m3327 -42 c-3 -3 -12 -4 -19 -1
-8 3 -5 6 6 6 11 1 17 -2 13 -5z m-6841 -121 c-7 -7 -26 7 -26 19 0 6 6 6 15
-2 9 -7 13 -15 11 -17z m6799 -23 c3 -5 1 -10 -4 -10 -6 0 -11 5 -11 10 0 6 2
10 4 10 3 0 8 -4 11 -10z m-10 -28 c-3 -3 -11 0 -18 7 -9 10 -8 11 6 5 10 -3
15 -9 12 -12z m35 -82 c0 -5 -5 -10 -11 -10 -5 0 -7 5 -4 10 3 6 8 10 11 10 2
0 4 -4 4 -10z m-55 -127 c3 -10 2 -19 -4 -21 -5 -2 -7 -10 -4 -19 4 -10 2 -14
-7 -11 -16 5 -23 38 -8 38 6 0 8 7 4 15 -3 8 -1 15 3 15 5 0 12 -8 16 -17z
m-4437 -133 c255 -242 440 -353 702 -424 147 -39 379 -48 536 -21 157 28 332
96 494 194 116 69 183 121 318 243 126 115 142 127 142 110 0 -20 -164 -177
-326 -312 -39 -33 -178 -113 -269 -156 -77 -36 -164 -67 -290 -104 -35 -11
-188 -31 -260 -36 -212 -12 -570 94 -773 230 -119 79 -365 311 -405 382 -18
31 10 9 131 -106z m4402 70 c0 -5 -5 -10 -11 -10 -5 0 -7 5 -4 10 3 6 8 10 11
10 2 0 4 -4 4 -10z m-4524 -215 c68 -56 132 -105 138 -105 4 0 19 -11 34 -25
15 -14 31 -25 37 -25 6 0 18 -9 27 -19 14 -16 131 -101 187 -136 9 -5 18 -12
21 -15 3 -3 16 -11 30 -17 14 -7 48 -25 75 -41 28 -16 95 -46 150 -67 55 -21
104 -42 110 -47 5 -4 19 -8 31 -8 13 0 26 -5 29 -10 18 -29 -195 42 -335 111
-207 102 -396 237 -549 392 -95 97 -132 148 -50 72 29 -27 58 -54 65 -60z
m-2036 15 c0 -5 -7 -10 -15 -10 -8 0 -15 5 -15 10 0 6 7 10 15 10 8 0 15 -4
15 -10z m6491 -30 c6 0 8 -4 5 -9 -4 -5 0 -11 6 -14 7 -2 9 -8 5 -13 -12 -12
-46 37 -39 55 6 14 7 14 10 -1 2 -10 8 -18 13 -18z m-2161 -4 c0 -16 -160
-154 -265 -227 -298 -209 -579 -308 -870 -309 -128 0 -275 17 -275 33 0 5 8 6
18 2 28 -11 342 -15 402 -5 30 5 83 15 118 23 34 8 62 12 62 10 0 -3 6 -1 13
4 6 5 44 20 82 32 66 21 197 83 275 129 19 12 49 28 67 37 17 9 39 25 49 36 9
10 21 19 26 19 5 0 21 11 36 25 15 14 30 25 35 25 4 0 21 14 37 30 16 17 32
30 36 30 3 0 21 12 39 28 69 58 80 67 95 74 19 9 20 9 20 4z m-4306 -38 c-4
-6 -10 -5 -15 3 -14 22 -10 33 6 19 8 -7 12 -17 9 -22z m6416 -69 c0 -6 -4 -7
-10 -4 -5 3 -10 11 -10 16 0 6 5 7 10 4 6 -3 10 -11 10 -16z m-5649 -51 c11
-13 24 -33 29 -46 6 -13 14 -20 20 -17 6 4 7 -1 3 -11 -5 -13 -3 -16 10 -11
16 6 21 -3 20 -39 0 -6 8 -9 19 -6 14 3 21 -2 25 -17 3 -11 12 -21 20 -21 9 0
11 -5 7 -12 -6 -10 -4 -10 8 0 13 10 17 10 23 -5 5 -10 7 -24 6 -32 -1 -7 2
-10 9 -6 6 4 29 -12 53 -36 45 -47 54 -53 137 -97 30 -16 82 -44 115 -62 33
-18 73 -40 90 -48 41 -22 14 -27 -32 -6 -260 115 -398 209 -503 344 -19 25
-38 47 -42 48 -5 2 -8 14 -8 27 0 13 -6 28 -13 32 -14 8 -31 43 -21 43 3 0 15
-10 25 -22z m1613 -32 c-3 -9 -10 -16 -15 -16 -5 0 -4 9 3 20 14 22 21 20 12
-4z m51 -16 c3 -5 1 -10 -4 -10 -6 0 -11 5 -11 10 0 6 2 10 4 10 3 0 8 -4 11
-10z m1492 -35 c-4 -8 -11 -15 -17 -15 -7 0 -7 6 0 21 13 23 26 19 17 -6z
m-2187 -35 c0 -5 -2 -10 -4 -10 -3 0 -8 5 -11 10 -3 6 -1 10 4 10 6 0 11 -4
11 -10z m4575 1 c7 -12 -12 -24 -25 -16 -11 7 -4 25 10 25 5 0 11 -4 15 -9z
m-35 -37 c0 -8 -5 -12 -10 -9 -6 4 -8 11 -5 16 9 14 15 11 15 -7z m-4430 -31
c19 -13 40 -23 46 -23 7 0 14 -3 16 -7 5 -13 99 -54 108 -48 5 3 12 1 15 -5 4
-6 15 -8 25 -5 10 3 25 -1 34 -10 8 -9 21 -15 28 -13 7 1 31 -8 53 -20 52 -28
30 -27 -75 2 -112 31 -245 98 -315 159 -19 16 29 -6 65 -30z m2557 -60 c-9 -9
-20 -13 -24 -9 -4 4 -1 11 7 16 25 16 35 11 17 -7z m-63 -5 l26 -11 -26 -13
c-37 -19 -94 -29 -94 -15 0 6 9 11 21 11 11 0 30 5 41 11 17 9 18 13 7 20 -20
13 -4 11 25 -3z m-134 -58 c0 -5 -7 -10 -16 -10 -8 0 -12 5 -9 10 3 6 10 10
16 10 5 0 9 -4 9 -10z m1982 -12 c-6 -6 -15 -8 -19 -4 -4 4 -1 11 7 16 8 5 17
7 19 4 3 -2 -1 -10 -7 -16z m-18 -42 c-6 -16 -24 -23 -24 -8 0 10 22 33 27 28
2 -2 1 -11 -3 -20z m-43 -69 c-17 -17 -24 -1 -10 25 12 21 14 21 17 4 2 -10
-1 -23 -7 -29z m-4190 -34 c39 -32 119 -116 119 -125 0 -5 -12 -8 -27 -6 -22
2 -28 8 -28 28 0 17 -8 29 -28 38 -18 9 -26 19 -23 28 3 8 0 14 -7 14 -7 0
-18 9 -25 20 -15 25 -9 25 19 3z m4149 -3 c0 -5 -5 -10 -11 -10 -5 0 -7 5 -4
10 3 6 8 10 11 10 2 0 4 -4 4 -10z m-4642 -35 c15 -8 40 -20 56 -25 16 -6 26
-13 23 -17 -7 -6 -117 43 -117 52 0 8 11 6 38 -10z m153 -78 c25 -18 66 -49
90 -69 24 -20 89 -72 144 -116 88 -69 175 -164 175 -191 0 -5 14 -15 30 -23
18 -8 28 -18 25 -26 -3 -8 -5 -18 -5 -23 0 -22 -19 -4 -72 69 -71 96 -117 140
-243 232 -158 116 -230 181 -197 180 4 -1 28 -15 53 -33z m-1184 -29 c-3 -8
-6 -5 -6 6 -1 11 2 17 5 13 3 -3 4 -12 1 -19z m1602 -55 c19 -18 42 -32 51
-30 9 1 23 -15 37 -41 12 -24 26 -49 32 -56 6 -8 9 -22 5 -32 -4 -14 -4 -16 4
-5 8 11 12 10 22 -8 8 -17 9 -26 0 -36 -8 -10 -8 -19 0 -34 7 -14 7 -21 0 -21
-5 0 -10 -7 -10 -15 0 -8 7 -15 16 -15 14 0 16 -9 12 -53 -2 -29 -12 -68 -21
-86 -13 -26 -14 -37 -6 -48 16 -18 3 -29 -16 -13 -10 8 -15 9 -15 1 0 -23 -17
-9 -38 32 -19 36 -19 42 -6 45 31 7 2 101 -48 156 -20 22 -33 55 -25 63 3 2
17 -16 32 -40 26 -46 52 -73 60 -66 5 6 -18 75 -28 85 -4 4 -7 22 -7 39 0 21
-9 40 -25 55 -14 13 -25 32 -25 42 0 10 -4 18 -10 18 -5 0 -15 18 -21 40 -7
22 -18 45 -26 51 -7 6 -13 16 -13 21 0 11 16 0 69 -49z m41 47 c0 -5 -4 -10
-10 -10 -5 0 -10 5 -10 10 0 6 5 10 10 10 6 0 10 -4 10 -10z m-1588 -42 c-7
-7 -12 -8 -12 -2 0 14 12 26 19 19 2 -3 -1 -11 -7 -17z m-32 -29 c0 -5 -4 -9
-10 -9 -5 0 -10 7 -10 16 0 8 5 12 10 9 6 -3 10 -10 10 -16z m73 -37 c-10 -10
-20 -17 -22 -16 -6 5 20 34 30 34 5 0 1 -8 -8 -18z m5297 -102 c0 -5 -4 -10
-10 -10 -5 0 -10 5 -10 10 0 6 5 10 10 10 6 0 10 -4 10 -10z m-1365 -20 c-3
-5 -11 -10 -16 -10 -6 0 -7 5 -4 10 3 6 11 10 16 10 6 0 7 -4 4 -10z m1309
-67 c-30 -24 -45 -25 -52 -5 -2 7 7 12 22 12 14 0 26 5 26 10 0 6 6 17 13 24
10 12 13 11 16 -2 2 -9 -10 -26 -25 -39z m-14 37 c0 -5 -2 -10 -4 -10 -3 0 -8
5 -11 10 -3 6 -1 10 4 10 6 0 11 -4 11 -10z m-3070 -15 c0 -8 -4 -15 -10 -15
-5 0 -10 7 -10 15 0 8 5 15 10 15 6 0 10 -7 10 -15z m48 -45 c7 -11 9 -20 4
-20 -4 0 -15 9 -25 20 -11 14 -13 20 -4 20 7 0 18 -9 25 -20z m32 -34 c-14
-14 -22 -2 -14 18 5 14 9 15 15 4 4 -7 4 -17 -1 -22z m1495 24 c-3 -5 -11 -10
-16 -10 -6 0 -7 5 -4 10 3 6 11 10 16 10 6 0 7 -4 4 -10z m105 0 c0 -5 -12
-21 -27 -35 -17 -15 -22 -25 -14 -25 11 0 10 -5 -4 -20 -21 -23 -35 -19 -15 5
7 8 9 15 6 15 -4 0 5 16 20 35 28 37 34 41 34 25z m-1576 -39 c3 -5 15 -7 26
-4 13 4 20 0 20 -9 0 -8 15 -19 33 -25 19 -5 31 -15 30 -24 -2 -8 11 -20 28
-28 26 -11 30 -17 24 -38 -4 -16 -2 -22 4 -18 7 3 8 0 5 -9 -4 -10 -1 -16 7
-16 10 0 10 -3 2 -11 -8 -8 -25 2 -65 40 -29 28 -47 51 -40 51 6 0 12 5 12 11
0 6 -8 8 -17 5 -18 -6 -93 55 -93 75 0 12 17 12 24 0z m2852 -58 c-10 -10 -19
5 -10 18 6 11 8 11 12 0 2 -7 1 -15 -2 -18z m-3546 -7 c0 -3 -4 -8 -10 -11 -5
-3 -10 -1 -10 4 0 6 5 11 10 11 6 0 10 -2 10 -4z m2200 -10 c0 -3 -4 -8 -10
-11 -5 -3 -10 -1 -10 4 0 6 5 11 10 11 6 0 10 -2 10 -4z m-2140 -126 c0 -5 -2
-10 -4 -10 -3 0 -8 5 -11 10 -3 6 -1 10 4 10 6 0 11 -4 11 -10z m847 -15 c-9
-9 -14 -10 -19 -1 -13 19 -9 24 11 19 16 -4 17 -8 8 -18z m-1897 -135 c0 -5
-2 -10 -4 -10 -3 0 -8 5 -11 10 -3 6 -1 10 4 10 6 0 11 -4 11 -10z m4180 -36
c0 -2 -7 -4 -15 -4 -8 0 -15 4 -15 10 0 5 7 7 15 4 8 -4 15 -8 15 -10z m-4073
-29 c-4 -8 -12 -15 -19 -14 -10 0 -10 2 0 6 6 2 12 12 12 21 0 8 3 13 6 9 4
-3 4 -13 1 -22z m3883 -69 c0 -3 -4 -8 -10 -11 -5 -3 -10 -1 -10 4 0 6 5 11
10 11 6 0 10 -2 10 -4z m-3570 -96 c0 -5 -5 -10 -11 -10 -5 0 -7 5 -4 10 3 6
8 10 11 10 2 0 4 -4 4 -10z m3328 -14 c-7 -8 -15 -12 -17 -11 -5 6 10 25 20
25 5 0 4 -6 -3 -14z m-24 -22 c4 -10 1 -14 -6 -12 -15 5 -23 28 -10 28 5 0 13
-7 16 -16z m-2754 -287 c0 -4 -9 -3 -20 3 -11 6 -20 15 -20 20 0 6 9 5 20 -2
11 -7 20 -16 20 -21z m60 -18 c0 -5 -4 -9 -10 -9 -5 0 -10 7 -10 16 0 8 5 12
10 9 6 -3 10 -10 10 -16z m520 -129 c0 -5 -2 -10 -4 -10 -3 0 -8 5 -11 10 -3
6 -1 10 4 10 6 0 11 -4 11 -10z m669 -34 c11 -14 6 -15 -27 -7 -4 1 8 21 12
21 2 0 9 -6 15 -14z"/>
<path d="M4120 7943 c0 -13 5 -23 10 -23 13 0 13 11 0 30 -8 12 -10 11 -10 -7z"/>
<path d="M4140 7900 c0 -6 6 -13 14 -16 8 -3 12 -12 10 -19 -3 -7 -1 -16 5
-20 7 -4 11 3 11 17 0 13 -9 29 -20 36 -13 7 -20 8 -20 2z"/>
<path d="M4030 7635 c-8 -45 -8 -47 2 -37 5 5 8 18 5 28 -3 11 -6 15 -7 9z"/>
<path d="M3911 7436 c-8 -10 -9 -16 -1 -21 5 -3 10 0 10 9 0 8 6 17 13 19 7 4
8 6 1 6 -6 1 -17 -5 -23 -13z"/>
<path d="M3321 7214 c0 -11 3 -14 6 -6 3 7 2 16 -1 19 -3 4 -6 -2 -5 -13z"/>
<path d="M3353 7193 c-7 -2 -13 -8 -13 -13 0 -12 33 -5 38 8 4 12 -4 14 -25 5z"/>
<path d="M3267 7184 c-3 -3 -3 -13 0 -21 5 -12 7 -12 14 -1 15 23 4 40 -14 22z"/>
<path d="M3231 7114 c-10 -12 -11 -18 -2 -27 9 -9 13 -6 18 11 3 15 11 21 20
18 8 -3 11 -1 8 4 -9 14 -28 12 -44 -6z"/>
<path d="M3190 7081 c0 -6 5 -13 10 -16 6 -3 10 1 10 9 0 9 -4 16 -10 16 -5 0
-10 -4 -10 -9z"/>
<path d="M2705 6580 c3 -5 8 -10 11 -10 2 0 4 5 4 10 0 6 -5 10 -11 10 -5 0
-7 -4 -4 -10z"/>
<path d="M5208 8233 c6 -2 18 -2 25 0 6 3 1 5 -13 5 -14 0 -19 -2 -12 -5z"/>
<path d="M5115 8130 c-3 -5 -2 -10 4 -10 5 0 13 5 16 10 3 6 2 10 -4 10 -5 0
-13 -4 -16 -10z"/>
<path d="M4960 8065 c0 -8 9 -15 20 -15 11 0 20 7 20 15 0 8 -9 15 -20 15 -11
0 -20 -7 -20 -15z"/>
<path d="M5596 8002 c6 -4 13 -15 17 -24 3 -10 18 -20 32 -24 14 -3 25 -12 25
-19 0 -18 17 -28 31 -20 13 9 -79 95 -101 95 -9 0 -11 -3 -4 -8z"/>
<path d="M6970 7970 c0 -5 7 -10 15 -10 8 0 15 -4 15 -10 0 -5 5 -10 12 -10 6
0 22 -10 35 -22 13 -12 23 -16 23 -9 0 6 -7 14 -15 17 -8 4 -15 12 -15 20 0 8
-9 14 -19 14 -11 0 -23 5 -26 10 -3 6 -10 10 -16 10 -5 0 -9 -4 -9 -10z"/>
<path d="M4500 7605 c-10 -13 -9 -15 9 -15 12 0 21 6 21 15 0 8 -4 15 -9 15
-5 0 -14 -7 -21 -15z"/>
<path d="M4512 7368 c5 -15 28 -18 29 -3 0 6 -7 12 -17 13 -10 3 -15 -1 -12
-10z"/>
<path d="M4910 7360 c0 -5 7 -10 15 -10 8 0 15 5 15 10 0 6 -7 10 -15 10 -8 0
-15 -4 -15 -10z"/>
<path d="M5340 7351 c0 -6 5 -13 10 -16 6 -3 10 1 10 9 0 9 -4 16 -10 16 -5 0
-10 -4 -10 -9z"/>
<path d="M4890 7329 c0 -5 5 -7 10 -4 6 3 10 8 10 11 0 2 -4 4 -10 4 -5 0 -10
-5 -10 -11z"/>
<path d="M4806 7321 c-4 -5 -2 -12 3 -15 5 -4 12 -2 15 3 4 5 2 12 -3 15 -5 4
-12 2 -15 -3z"/>
<path d="M4750 7305 c-10 -12 -9 -16 5 -21 23 -9 40 10 22 25 -11 9 -17 8 -27
-4z"/>
<path d="M4386 7291 c-3 -5 0 -11 7 -13 17 -7 38 2 31 13 -7 12 -31 12 -38 0z"/>
<path d="M4301 7281 c-7 -5 -10 -14 -7 -20 11 -17 23 -13 29 9 6 22 0 25 -22
11z"/>
<path d="M4800 7280 c0 -5 7 -7 15 -4 8 4 15 8 15 10 0 2 -7 4 -15 4 -8 0 -15
-4 -15 -10z"/>
<path d="M4230 7250 c0 -5 9 -10 20 -10 13 0 20 -7 20 -20 0 -24 15 -27 24 -4
9 22 8 24 -9 24 -8 0 -15 5 -15 10 0 6 -9 10 -20 10 -11 0 -20 -4 -20 -10z"/>
<path d="M4160 7225 c0 -8 7 -15 15 -15 8 0 15 7 15 15 0 8 -7 15 -15 15 -8 0
-15 -7 -15 -15z"/>
<path d="M4715 7218 c-11 -7 -26 -13 -33 -14 -20 -4 -42 -25 -36 -36 3 -5 12
-7 20 -4 16 6 29 -10 14 -19 -16 -10 -1 -25 18 -18 24 9 45 42 49 75 3 31 -2
33 -32 16z"/>
<path d="M5265 7220 c3 -5 10 -10 16 -10 5 0 9 5 9 10 0 6 -7 10 -16 10 -8 0
-12 -4 -9 -10z"/>
<path d="M4240 7199 c0 -5 5 -7 10 -4 6 3 10 8 10 11 0 2 -4 4 -10 4 -5 0 -10
-5 -10 -11z"/>
<path d="M4805 7200 c-3 -6 1 -13 10 -16 19 -8 30 0 20 15 -8 14 -22 14 -30 1z"/>
<path d="M4138 7182 c-28 -17 -36 -36 -19 -47 6 -3 15 3 20 14 6 11 18 27 27
35 20 21 6 20 -28 -2z"/>
<path d="M4603 7173 c-8 -3 -11 -14 -7 -29 6 -24 0 -28 -38 -25 -12 2 -18 -5
-18 -16 0 -14 8 -19 30 -21 17 -1 30 2 30 8 0 5 7 10 15 10 8 0 15 -5 15 -12
0 -6 7 -3 14 8 13 17 13 21 -6 35 -11 9 -18 21 -14 27 8 13 -4 21 -21 15z"/>
<path d="M4170 7166 c0 -2 7 -7 16 -10 8 -3 12 -2 9 4 -6 10 -25 14 -25 6z"/>
<path d="M4073 7131 c-4 -18 -11 -21 -29 -17 -25 7 -44 -12 -25 -24 24 -14 59
1 64 28 7 34 -2 44 -10 13z"/>
<path d="M4510 7131 c0 -18 18 -21 30 -6 10 13 9 15 -9 15 -11 0 -21 -4 -21
-9z"/>
<path d="M4140 7120 c0 -5 7 -7 15 -4 8 4 15 8 15 10 0 2 -7 4 -15 4 -8 0 -15
-4 -15 -10z"/>
<path d="M4425 7076 c-27 -20 -54 -36 -58 -36 -5 0 -16 -7 -25 -16 -15 -15
-14 -16 5 -10 14 5 23 2 27 -10 3 -8 12 -14 19 -11 6 2 17 -3 24 -12 11 -15
13 -14 30 2 10 10 13 17 5 17 -7 0 -12 7 -12 15 0 20 17 19 29 -2 8 -15 12
-16 23 -5 18 17 -6 33 -46 30 -16 -2 -31 2 -33 9 -3 7 3 9 16 6 15 -4 21 -1
21 11 0 23 11 20 36 -11 23 -29 58 -26 52 4 -2 13 -11 17 -30 15 -21 -3 -27 2
-30 18 -3 20 -5 19 -53 -14z"/>
<path d="M6430 7012 c0 -16 27 -45 39 -41 9 3 7 11 -7 27 -20 23 -32 28 -32
14z"/>
<path d="M4300 6991 c0 -6 5 -11 11 -11 6 0 8 -8 5 -18 -7 -22 17 -58 32 -49
5 4 8 16 5 27 -4 14 0 20 11 20 9 0 16 7 16 16 0 11 -8 15 -28 13 -15 -2 -33
0 -40 4 -6 5 -12 4 -12 -2z"/>
<path d="M5850 6991 c0 -12 29 -35 36 -28 11 10 -5 37 -21 37 -8 0 -15 -4 -15
-9z"/>
<path d="M5946 6955 c-3 -10 -12 -15 -21 -11 -9 3 -15 0 -15 -8 0 -21 28 -28
33 -8 3 13 7 10 15 -10 16 -39 33 -36 21 4 -11 41 -25 54 -33 33z"/>
<path d="M6506 6941 c10 -10 23 -16 27 -14 12 7 -13 33 -31 33 -13 0 -12 -3 4
-19z"/>
<path d="M6155 6840 c3 -5 8 -10 11 -10 2 0 4 5 4 10 0 6 -5 10 -11 10 -5 0
-7 -4 -4 -10z"/>
<path d="M6098 6808 c2 -10 6 -17 9 -14 2 2 25 -18 49 -44 41 -44 75 -57 70
-27 -3 22 -17 36 -30 31 -7 -3 -16 2 -19 10 -4 9 -14 16 -23 16 -9 0 -14 6
-11 13 3 8 -6 18 -23 24 -24 9 -27 8 -22 -9z"/>
<path d="M6216 6793 c-12 -12 -6 -33 9 -33 8 0 15 6 15 14 0 17 -14 28 -24 19z"/>
<path d="M5116 4425 c-3 -8 -1 -15 4 -15 13 0 22 18 11 24 -5 3 -11 -1 -15 -9z"/>
<path d="M5218 4394 c-4 -6 1 -19 12 -29 12 -10 20 -13 20 -7 0 7 -4 12 -9 12
-5 0 -11 8 -13 18 -2 11 -6 13 -10 6z"/>
<path d="M5373 4373 c9 -9 19 -14 23 -11 10 10 -6 28 -24 28 -15 0 -15 -1 1
-17z"/>
<path d="M5110 4375 c0 -5 5 -17 10 -25 5 -8 10 -10 10 -5 0 6 -5 17 -10 25
-5 8 -10 11 -10 5z"/>
<path d="M5500 4370 c-13 -8 -12 -10 3 -10 9 0 17 5 17 10 0 12 -1 12 -20 0z"/>
<path d="M5172 4340 c-10 -17 -10 -20 3 -20 8 0 15 9 15 20 0 11 -1 20 -3 20
-1 0 -8 -9 -15 -20z"/>
<path d="M5430 4345 c0 -8 -4 -15 -10 -15 -5 0 -10 -7 -10 -15 0 -30 27 -15
28 15 0 17 -1 30 -4 30 -2 0 -4 -7 -4 -15z"/>
<path d="M5274 4342 c-6 -4 -13 -15 -17 -24 -4 -12 -2 -15 9 -11 7 3 14 10 14
15 0 6 9 8 21 5 13 -3 19 -1 16 6 -5 15 -28 20 -43 9z"/>
<path d="M5210 4331 c0 -5 7 -11 15 -15 9 -3 15 0 15 9 0 8 -7 15 -15 15 -8 0
-15 -4 -15 -9z"/>
<path d="M5380 4330 c-9 -6 -10 -10 -3 -10 6 0 15 5 18 10 8 12 4 12 -15 0z"/>
<path d="M5738 4333 c-21 -5 -24 -23 -4 -23 8 0 16 7 20 15 3 8 4 14 3 14 -1
-1 -10 -3 -19 -6z"/>
<path d="M5200 4300 c0 -5 5 -10 10 -10 6 0 10 5 10 10 0 6 -4 10 -10 10 -5 0
-10 -4 -10 -10z"/>
<path d="M5860 4301 c0 -5 5 -13 10 -16 6 -3 10 -2 10 4 0 5 -4 13 -10 16 -5
3 -10 2 -10 -4z"/>
<path d="M5510 4289 c0 -5 5 -7 10 -4 6 3 10 8 10 11 0 2 -4 4 -10 4 -5 0 -10
-5 -10 -11z"/>
<path d="M5450 4280 c0 -5 -8 -9 -17 -8 -45 3 -74 -3 -71 -14 5 -13 55 -19 73
-9 6 3 16 6 24 6 20 0 25 21 6 28 -8 4 -15 2 -15 -3z"/>
<path d="M5655 4280 c-4 -6 7 -10 25 -10 18 0 29 4 25 10 -3 6 -15 10 -25 10
-10 0 -22 -4 -25 -10z"/>
<path d="M5526 4264 c-9 -23 -8 -24 14 -24 11 0 20 2 20 4 0 12 -13 36 -20 36
-4 0 -11 -7 -14 -16z"/>
<path d="M5570 4260 c0 -24 15 -27 24 -4 9 22 8 24 -9 24 -8 0 -15 -9 -15 -20z"/>
<path d="M2948 5369 c-9 -24 -41 -118 -72 -209 -30 -91 -58 -173 -61 -182 -7
-17 3 -18 130 -18 125 0 136 1 131 18 -3 9 -28 107 -56 217 -28 110 -52 204
-53 209 -2 5 -10 -11 -19 -35z"/>
<path d="M3210 4950 c0 -5 14 -10 31 -10 17 0 28 4 24 10 -3 6 -17 10 -31 10
-13 0 -24 -4 -24 -10z"/>
<path d="M2610 4819 c0 -5 5 -7 10 -4 6 3 10 8 10 11 0 2 -4 4 -10 4 -5 0 -10
-5 -10 -11z"/>
<path d="M3206 4692 c-3 -6 -1 -14 5 -17 15 -10 25 3 12 16 -7 7 -13 7 -17 1z"/>
<path d="M3320 4685 c-38 -13 -51 -39 -25 -49 11 -4 19 3 26 21 7 19 13 23 21
15 11 -11 38 -6 38 8 0 15 -25 17 -60 5z"/>
<path d="M3225 4640 c-3 -5 1 -10 10 -10 9 0 13 5 10 10 -3 6 -8 10 -10 10 -2
0 -7 -4 -10 -10z"/>
<path d="M3232 4588 c6 -18 28 -21 28 -4 0 9 -7 16 -16 16 -9 0 -14 -5 -12
-12z"/>
<path d="M3322 4559 c2 -7 10 -15 17 -17 8 -3 12 1 9 9 -2 7 -10 15 -17 17 -8
3 -12 -1 -9 -9z"/>
<path d="M3366 4555 c4 -8 10 -15 15 -15 5 0 9 7 9 15 0 8 -7 15 -15 15 -9 0
-12 -6 -9 -15z"/>
<path d="M3240 4541 c0 -9 24 -21 42 -21 6 0 6 6 -2 15 -14 16 -40 20 -40 6z"/>
<path d="M3796 4403 c-6 -14 -5 -15 5 -6 7 7 10 15 7 18 -3 3 -9 -2 -12 -12z"/>
<path d="M3995 4379 c-4 -6 -5 -12 -2 -15 2 -3 7 2 10 11 7 17 1 20 -8 4z"/>
<path d="M4516 4253 c-8 -20 -6 -21 22 -14 22 6 22 6 3 18 -16 10 -20 9 -25
-4z"/>
<path d="M7314 5566 c-86 -22 -164 -82 -253 -192 -38 -47 -70 -125 -80 -194
-12 -86 8 -300 29 -300 3 0 45 39 91 88 47 48 165 164 264 257 317 300 302
284 285 295 -72 48 -240 71 -336 46z"/>
<path d="M7490 5047 c-168 -166 -325 -319 -349 -339 -37 -32 -42 -40 -31 -53
8 -10 9 -15 1 -15 -6 0 -11 5 -11 11 0 5 -4 7 -10 4 -5 -3 -10 -1 -10 4 0 6
-5 11 -11 11 -31 0 141 -142 207 -171 62 -28 169 -40 245 -28 179 27 322 160
411 379 28 68 -3 280 -57 394 -26 55 -61 106 -73 106 -4 0 -144 -136 -312
-303z"/>
<path d="M8120 5066 c0 -9 7 -16 16 -16 9 0 14 5 12 12 -6 18 -28 21 -28 4z"/>
<path d="M7400 5049 c0 -12 5 -19 12 -17 18 6 20 25 3 31 -10 5 -15 0 -15 -14z"/>
<path d="M8120 5018 c0 -19 2 -20 10 -8 13 19 13 30 0 30 -5 0 -10 -10 -10
-22z"/>
<path d="M8120 4975 c0 -8 7 -15 16 -15 14 0 14 3 4 15 -7 8 -14 15 -16 15 -2
0 -4 -7 -4 -15z"/>
<path d="M7950 4971 c0 -6 5 -13 10 -16 6 -3 10 1 10 9 0 9 -4 16 -10 16 -5 0
-10 -4 -10 -9z"/>
<path d="M8060 4959 c0 -5 5 -7 10 -4 6 3 10 8 10 11 0 2 -4 4 -10 4 -5 0 -10
-5 -10 -11z"/>
<path d="M8080 4940 c0 -5 7 -10 16 -10 8 0 12 5 9 10 -3 6 -10 10 -16 10 -5
0 -9 -4 -9 -10z"/>
<path d="M8116 4924 c-4 -14 -5 -29 -2 -32 7 -7 -36 -38 -48 -34 -4 1 -14 -2
-21 -8 -8 -6 -16 -7 -19 -2 -3 5 -17 7 -31 4 -14 -2 -25 0 -25 5 0 17 13 23
26 12 11 -9 15 -7 20 5 5 13 9 14 20 5 17 -14 17 -9 4 27 -10 25 -12 26 -24 9
-7 -10 -18 -15 -23 -12 -16 10 -36 -20 -30 -43 6 -23 -34 -134 -58 -160 -8 -9
-15 -21 -15 -26 0 -16 -103 -118 -154 -152 -123 -83 -212 -107 -342 -91 -111
14 -199 57 -288 141 -17 16 -37 28 -47 28 -9 0 -19 9 -22 20 -3 13 -14 20 -28
20 -21 0 -21 -1 -5 -19 12 -13 14 -21 6 -26 -6 -4 -9 -13 -6 -21 3 -8 1 -14
-4 -14 -6 0 -10 11 -10 25 0 14 -7 28 -15 31 -8 4 -13 10 -10 14 3 4 -3 14
-12 21 -15 12 -16 12 -11 -3 4 -10 1 -19 -8 -22 -23 -9 -27 -7 -20 10 4 9 2
13 -5 8 -6 -4 -15 0 -20 7 -7 11 -9 11 -9 1 0 -18 19 -53 39 -73 9 -9 23 -25
31 -35 67 -85 108 -128 148 -157 68 -50 162 -98 198 -101 17 -2 36 -6 42 -10
6 -4 29 -9 49 -11 21 -2 38 -4 38 -5 0 -1 12 -4 28 -6 17 -3 27 0 27 8 1 8 6
6 15 -5 16 -22 60 -14 51 9 -3 8 -1 14 4 14 6 0 10 -6 10 -13 0 -12 11 -12 63
-2 91 18 140 33 162 49 11 9 26 16 33 16 22 0 154 109 199 163 42 50 113 178
113 202 0 7 7 26 15 43 13 25 15 101 4 132 -1 3 -1 13 0 22 1 10 -4 27 -12 38
-14 21 -15 21 -21 -6z m-42 -99 c-4 -8 -12 -15 -20 -15 -17 0 -18 17 -1 23 22
9 27 7 21 -8z m-57 -15 c-1 -11 -4 -20 -8 -20 -10 0 -19 27 -12 34 12 12 22 5
20 -14z m-32 -126 c8 3 15 1 15 -4 0 -6 -7 -10 -15 -10 -9 0 -15 -9 -15 -24 0
-14 -5 -28 -11 -31 -18 -11 -23 3 -11 30 10 21 9 27 -3 31 -8 4 -12 10 -9 16
3 5 11 4 20 -3 7 -6 21 -9 29 -5z m-875 -128 c0 -3 -4 -8 -10 -11 -5 -3 -10
-1 -10 4 0 6 5 11 10 11 6 0 10 -2 10 -4z m100 -116 c0 -5 -5 -10 -11 -10 -5
0 -7 5 -4 10 3 6 8 10 11 10 2 0 4 -4 4 -10z m0 -44 c0 -3 -4 -8 -10 -11 -5
-3 -10 -1 -10 4 0 6 5 11 10 11 6 0 10 -2 10 -4z m376 -123 c-10 -10 -19 5
-10 18 6 11 8 11 12 0 2 -7 1 -15 -2 -18z"/>
<path d="M7105 4910 c-3 -5 -1 -10 4 -10 6 0 11 5 11 10 0 6 -2 10 -4 10 -3 0
-8 -4 -11 -10z"/>
<path d="M8069 4897 c6 -8 8 -17 4 -20 -3 -4 -2 -7 4 -7 15 0 22 11 16 26 -3
8 -12 14 -20 14 -12 0 -13 -3 -4 -13z"/>
<path d="M8175 4890 c-3 -5 -1 -10 4 -10 6 0 11 5 11 10 0 6 -2 10 -4 10 -3 0
-8 -4 -11 -10z"/>
<path d="M7072 4868 c-5 -8 -6 -22 -1 -33 8 -20 9 -19 13 23 3 26 2 26 -12 10z"/>
<path d="M6810 4805 c0 -8 4 -15 9 -15 8 0 22 -41 27 -75 2 -20 16 -45 25 -45
5 0 8 6 7 13 -2 7 5 11 16 9 17 -3 18 -2 7 12 -7 9 -17 13 -22 10 -5 -2 -11 7
-15 22 -4 17 -2 29 6 34 7 4 9 13 5 19 -5 9 -10 9 -21 0 -12 -10 -16 -8 -21 9
-6 25 -23 30 -23 7z"/>
<path d="M6922 4790 c0 -14 2 -19 5 -12 2 6 2 18 0 25 -3 6 -5 1 -5 -13z"/>
<path d="M6990 4766 c0 -2 7 -7 16 -10 8 -3 12 -2 9 4 -6 10 -25 14 -25 6z"/>
<path d="M7017 4728 c-6 -18 12 -50 24 -42 6 4 6 11 -2 20 -9 11 -9 14 0 14 7
0 9 5 6 10 -9 14 -22 13 -28 -2z"/>
<path d="M7080 4710 c0 -5 5 -10 11 -10 5 0 7 5 4 10 -3 6 -8 10 -11 10 -2 0
-4 -4 -4 -10z"/>
<path d="M6960 4686 c0 -20 24 -36 39 -26 8 4 11 15 8 24 -8 20 -47 21 -47 2z"/>
<path d="M4870 2260 c6 -11 16 -20 22 -20 6 0 3 9 -7 20 -10 11 -20 20 -22 20
-2 0 1 -9 7 -20z"/>
<path d="M6835 8669 c-10 -15 3 -25 16 -12 7 7 7 13 1 17 -6 3 -14 1 -17 -5z"/>
<path d="M7772 8493 c5 -25 28 -28 28 -4 0 12 -6 21 -16 21 -9 0 -14 -7 -12
-17z"/>
<path d="M7046 8291 c-3 -5 1 -11 9 -15 15 -6 29 7 18 18 -9 9 -21 8 -27 -3z"/>
<path d="M1866 8271 c-4 -7 -5 -15 -2 -18 9 -9 19 4 14 18 -4 11 -6 11 -12 0z"/>
<path d="M3040 8144 c0 -14 3 -15 18 -3 9 7 19 15 21 16 2 2 -5 3 -17 3 -14 0
-22 -6 -22 -16z"/>
<path d="M7440 8140 c0 -22 20 -26 38 -8 19 19 14 28 -13 28 -18 0 -25 -5 -25
-20z"/>
<path d="M3640 8110 c0 -5 5 -10 11 -10 5 0 7 5 4 10 -3 6 -8 10 -11 10 -2 0
-4 -4 -4 -10z"/>
<path d="M3607 8103 c-10 -16 11 -39 23 -27 8 8 7 14 -4 23 -8 7 -17 8 -19 4z"/>
<path d="M3530 8070 c0 -5 5 -10 10 -10 6 0 10 5 10 10 0 6 -4 10 -10 10 -5 0
-10 -4 -10 -10z"/>
<path d="M8720 8020 c0 -5 5 -10 10 -10 6 0 10 5 10 10 0 6 -4 10 -10 10 -5 0
-10 -4 -10 -10z"/>
<path d="M2863 8003 c-7 -2 -13 -11 -13 -19 0 -8 6 -14 13 -14 14 1 47 24 47
34 0 7 -29 7 -47 -1z"/>
<path d="M7750 7890 c0 -5 5 -10 10 -10 6 0 10 5 10 10 0 6 -4 10 -10 10 -5 0
-10 -4 -10 -10z"/>
<path d="M3100 7845 c0 -8 5 -15 10 -15 6 0 10 7 10 15 0 8 -4 15 -10 15 -5 0
-10 -7 -10 -15z"/>
<path d="M7770 7720 c-13 -8 -12 -11 5 -24 25 -18 46 -3 25 19 -10 10 -20 11
-30 5z"/>
<path d="M7720 7655 c0 -8 9 -15 20 -15 11 0 20 2 20 5 0 2 -9 9 -20 15 -16 9
-20 8 -20 -5z"/>
<path d="M2975 7620 c-3 -5 -1 -10 4 -10 6 0 11 5 11 10 0 6 -2 10 -4 10 -3 0
-8 -4 -11 -10z"/>
<path d="M7922 7424 c2 -11 11 -20 22 -22 13 -3 17 1 14 14 -2 11 -11 20 -22
22 -13 3 -17 -1 -14 -14z"/>
<path d="M8046 7361 c-7 -10 20 -41 35 -41 5 0 9 7 9 15 0 18 -36 39 -44 26z"/>
<path d="M8170 7340 c0 -5 5 -10 11 -10 5 0 7 5 4 10 -3 6 -8 10 -11 10 -2 0
-4 -4 -4 -10z"/>
<path d="M2726 7274 c-10 -25 1 -29 14 -5 6 12 7 21 1 21 -5 0 -12 -7 -15 -16z"/>
<path d="M8043 7259 c-9 -9 -5 -20 14 -46 23 -30 37 -35 38 -15 1 4 6 16 12
28 11 19 10 21 -13 16 -19 -3 -23 -1 -18 12 7 19 -16 22 -33 5z"/>
<path d="M8166 7251 c-3 -5 1 -12 9 -15 9 -3 20 -17 25 -31 5 -14 14 -25 20
-25 15 0 12 30 -4 36 -8 3 -16 14 -19 25 -5 20 -22 25 -31 10z"/>
<path d="M9265 7160 c-3 -5 -1 -10 4 -10 6 0 11 5 11 10 0 6 -2 10 -4 10 -3 0
-8 -4 -11 -10z"/>
<path d="M8470 6976 c0 -9 5 -16 10 -16 6 0 10 4 10 9 0 6 -4 13 -10 16 -5 3
-10 -1 -10 -9z"/>
<path d="M9090 6980 c0 -5 5 -10 11 -10 5 0 7 5 4 10 -3 6 -8 10 -11 10 -2 0
-4 -4 -4 -10z"/>
<path d="M8945 6950 c4 -6 11 -8 16 -5 14 9 11 15 -7 15 -8 0 -12 -5 -9 -10z"/>
<path d="M8557 6733 c-13 -12 -7 -43 8 -43 9 0 14 8 12 20 -4 24 -11 32 -20
23z"/>
<path d="M8440 6660 c0 -5 5 -10 10 -10 6 0 10 5 10 10 0 6 -4 10 -10 10 -5 0
-10 -4 -10 -10z"/>
<path d="M1330 6604 c0 -8 5 -12 10 -9 6 3 10 10 10 16 0 5 -4 9 -10 9 -5 0
-10 -7 -10 -16z"/>
<path d="M8724 6545 c-8 -20 4 -35 27 -35 20 0 23 8 13 34 -8 20 -33 21 -40 1z"/>
<path d="M8710 6421 c0 -5 5 -13 10 -16 6 -3 10 -2 10 4 0 5 -4 13 -10 16 -5
3 -10 2 -10 -4z"/>
<path d="M9230 6380 c0 -5 5 -10 10 -10 6 0 10 5 10 10 0 6 -4 10 -10 10 -5 0
-10 -4 -10 -10z"/>
<path d="M8491 6366 c2 -2 18 -6 34 -10 22 -5 26 -4 15 4 -14 9 -59 15 -49 6z"/>
<path d="M1252 6344 c9 -9 21 -13 27 -9 16 10 3 25 -22 25 -20 0 -20 -1 -5
-16z"/>
<path d="M8602 6344 c2 -10 14 -18 31 -20 22 -2 28 1 25 14 -2 10 -15 18 -31
20 -23 3 -28 0 -25 -14z"/>
<path d="M8478 6313 c6 -2 18 -2 25 0 6 3 1 5 -13 5 -14 0 -19 -2 -12 -5z"/>
<path d="M8725 6160 c3 -5 11 -10 16 -10 6 0 7 5 4 10 -3 6 -11 10 -16 10 -6
0 -7 -4 -4 -10z"/>
<path d="M2200 6080 c0 -5 5 -10 10 -10 6 0 10 5 10 10 0 6 -4 10 -10 10 -5 0
-10 -4 -10 -10z"/>
<path d="M8970 6080 c0 -5 5 -10 10 -10 6 0 10 5 10 10 0 6 -4 10 -10 10 -5 0
-10 -4 -10 -10z"/>
<path d="M2192 6020 c-7 -11 -8 -20 -3 -20 9 0 24 30 18 36 -1 2 -8 -6 -15
-16z"/>
<path d="M1828 5993 c7 -3 16 -2 19 1 4 3 -2 6 -13 5 -11 0 -14 -3 -6 -6z"/>
<path d="M1910 5985 c-8 -9 -8 -15 -2 -15 6 0 12 6 15 13 3 9 7 9 19 -1 13
-10 17 -10 22 3 7 20 -37 21 -54 0z"/>
<path d="M8810 5981 c0 -5 7 -12 16 -15 24 -9 28 -7 14 9 -14 17 -30 20 -30 6z"/>
<path d="M8672 5951 c7 -11 16 -17 20 -14 10 5 -10 33 -23 33 -5 0 -4 -9 3
-19z"/>
<path d="M8830 5935 c-10 -12 -10 -15 4 -15 9 0 16 7 16 15 0 8 -2 15 -4 15
-2 0 -9 -7 -16 -15z"/>
<path d="M9110 5940 c0 -5 7 -10 15 -10 8 0 15 5 15 10 0 6 -7 10 -15 10 -8 0
-15 -4 -15 -10z"/>
<path d="M8641 5906 c-10 -12 -7 -18 14 -32 35 -23 57 -4 30 26 -22 24 -29 25
-44 6z"/>
<path d="M8747 5904 c4 -11 35 -24 60 -24 6 0 9 8 6 19 -4 14 -13 19 -38 18
-21 -1 -31 -5 -28 -13z"/>
<path d="M8880 5901 c0 -5 7 -11 15 -15 9 -3 15 0 15 9 0 8 -7 15 -15 15 -8 0
-15 -4 -15 -9z"/>
<path d="M1810 5880 c0 -5 5 -10 10 -10 6 0 10 5 10 10 0 6 -4 10 -10 10 -5 0
-10 -4 -10 -10z"/>
<path d="M8925 5880 c3 -5 8 -10 11 -10 2 0 4 5 4 10 0 6 -5 10 -11 10 -5 0
-7 -4 -4 -10z"/>
<path d="M8720 5866 c0 -9 5 -16 10 -16 6 0 10 4 10 9 0 6 -4 13 -10 16 -5 3
-10 -1 -10 -9z"/>
<path d="M1933 5840 c-3 -10 -14 -22 -25 -26 -20 -6 -20 -25 1 -32 7 -2 15 5
18 16 2 11 13 22 24 25 13 3 17 11 13 21 -8 22 -25 20 -31 -4z"/>
<path d="M8612 5848 c6 -18 28 -21 28 -4 0 9 -7 16 -16 16 -9 0 -14 -5 -12
-12z"/>
<path d="M1650 5820 c13 -24 35 -27 26 -4 -3 9 -6 18 -6 20 0 2 -7 4 -15 4
-13 0 -14 -4 -5 -20z"/>
<path d="M8868 5833 c-21 -5 -24 -23 -4 -23 8 0 16 7 20 15 3 8 4 14 3 14 -1
-1 -10 -3 -19 -6z"/>
<path d="M9115 5830 c4 -6 11 -8 16 -5 14 9 11 15 -7 15 -8 0 -12 -5 -9 -10z"/>
<path d="M8600 5808 c0 -13 44 -38 67 -38 23 0 14 18 -19 34 -38 19 -48 20
-48 4z"/>
<path d="M8773 5813 c-20 -8 -15 -23 7 -23 11 0 20 7 20 15 0 15 -6 17 -27 8z"/>
<path d="M8990 5805 c0 -8 5 -15 10 -15 6 0 10 7 10 15 0 8 -4 15 -10 15 -5 0
-10 -7 -10 -15z"/>
<path d="M8920 5790 c0 -5 4 -10 9 -10 6 0 13 5 16 10 3 6 -1 10 -9 10 -9 0
-16 -4 -16 -10z"/>
<path d="M1935 5740 c3 -5 8 -10 11 -10 2 0 4 5 4 10 0 6 -5 10 -11 10 -5 0
-7 -4 -4 -10z"/>
<path d="M9100 5725 c-8 -9 -8 -15 -2 -15 12 0 26 19 19 26 -2 2 -10 -2 -17
-11z"/>
<path d="M2026 5715 c-3 -8 -1 -15 4 -15 6 0 10 7 10 15 0 8 -2 15 -4 15 -2 0
-6 -7 -10 -15z"/>
<path d="M8710 5721 c0 -11 69 -20 75 -10 3 3 -9 9 -26 13 -42 8 -49 8 -49 -3z"/>
<path d="M8910 5721 c-14 -4 -20 -10 -15 -13 14 -9 66 3 59 13 -6 10 -8 10
-44 0z"/>
<path d="M9020 5720 c0 -5 5 -10 10 -10 6 0 10 5 10 10 0 6 -4 10 -10 10 -5 0
-10 -4 -10 -10z"/>
<path d="M8835 5710 c3 -5 13 -10 21 -10 8 0 12 5 9 10 -3 6 -13 10 -21 10 -8
0 -12 -4 -9 -10z"/>
<path d="M9290 5701 c0 -11 4 -22 8 -25 14 -9 35 12 29 28 -9 23 -37 20 -37
-3z"/>
<path d="M1940 5690 c-12 -8 -13 -11 -1 -19 18 -12 51 -2 51 15 0 16 -28 18
-50 4z"/>
<path d="M1715 5680 c-3 -5 -1 -10 4 -10 6 0 11 5 11 10 0 6 -2 10 -4 10 -3 0
-8 -4 -11 -10z"/>
<path d="M1758 5683 c7 -3 16 -2 19 1 4 3 -2 6 -13 5 -11 0 -14 -3 -6 -6z"/>
<path d="M1798 5673 c6 -2 18 -2 25 0 6 3 1 5 -13 5 -14 0 -19 -2 -12 -5z"/>
<path d="M1815 5644 c-15 -8 -38 -14 -51 -14 -41 0 -35 -18 9 -24 138 -20 227
-15 227 14 0 5 -26 12 -57 16 -32 4 -68 10 -79 15 -13 5 -32 2 -49 -7z"/>
<path d="M9135 5649 c-4 -6 -5 -13 -2 -16 7 -7 27 6 27 18 0 12 -17 12 -25 -2z"/>
<path d="M9420 5646 c0 -7 6 -19 14 -25 19 -16 32 5 16 24 -16 19 -30 19 -30
1z"/>
<path d="M1515 5640 c3 -5 12 -7 20 -3 21 7 19 13 -6 13 -11 0 -18 -4 -14 -10z"/>
<path d="M8952 5638 c7 -19 38 -22 38 -4 0 10 -9 16 -21 16 -12 0 -19 -5 -17
-12z"/>
<path d="M9052 5628 c6 -18 28 -21 28 -4 0 9 -7 16 -16 16 -9 0 -14 -5 -12
-12z"/>
<path d="M1615 5611 c-38 -7 -36 -7 25 -12 70 -5 90 -2 69 12 -15 10 -34 9
-94 0z"/>
<path d="M8840 5600 c0 -5 5 -10 11 -10 5 0 7 5 4 10 -3 6 -8 10 -11 10 -2 0
-4 -4 -4 -10z"/>
<path d="M9190 5600 c0 -5 5 -10 10 -10 6 0 10 5 10 10 0 6 -4 10 -10 10 -5 0
-10 -4 -10 -10z"/>
<path d="M9140 5575 c-17 -20 -9 -27 25 -23 27 3 27 3 8 21 -18 16 -21 16 -33
2z"/>
<path d="M9230 5570 c0 -13 5 -20 13 -17 6 2 12 10 12 17 0 7 -6 15 -12 18 -8
2 -13 -5 -13 -18z"/>
<path d="M9334 5575 c-3 -8 -3 -19 1 -25 11 -18 25 -11 25 15 0 27 -17 34 -26
10z"/>
<path d="M955 5569 c-10 -15 3 -25 16 -12 7 7 7 13 1 17 -6 3 -14 1 -17 -5z"/>
<path d="M8975 5570 c-3 -5 1 -10 11 -10 12 0 14 -3 6 -13 -19 -22 1 -39 31
-28 32 12 36 31 7 31 -11 0 -23 7 -26 15 -7 17 -20 20 -29 5z"/>
<path d="M1735 5540 c-3 -5 3 -10 14 -10 12 0 21 5 21 10 0 6 -6 10 -14 10 -8
0 -18 -4 -21 -10z"/>
<path d="M9275 5531 c-6 -11 9 -23 19 -14 9 9 7 23 -3 23 -6 0 -12 -4 -16 -9z"/>
<path d="M1620 5520 c0 -5 5 -10 10 -10 6 0 10 5 10 10 0 6 -4 10 -10 10 -5 0
-10 -4 -10 -10z"/>
<path d="M8925 5520 c-4 -6 3 -10 14 -10 25 0 27 6 6 13 -8 4 -17 2 -20 -3z"/>
<path d="M9140 5520 c0 -9 31 -30 44 -30 13 0 5 28 -10 34 -23 9 -34 7 -34 -4z"/>
<path d="M8830 5499 c0 -5 5 -7 10 -4 6 3 10 8 10 11 0 2 -4 4 -10 4 -5 0 -10
-5 -10 -11z"/>
<path d="M1714 5491 c6 -9 -25 -20 -84 -27 -45 -6 -73 -14 -67 -21 3 -2 43 -7
88 -10 45 -3 93 -9 106 -14 18 -6 23 -5 23 6 0 8 -9 15 -20 15 -24 0 -26 13
-5 30 20 16 10 30 -21 30 -14 0 -23 -4 -20 -9z"/>
<path d="M1790 5490 c0 -5 5 -10 10 -10 6 0 10 5 10 10 0 6 -4 10 -10 10 -5 0
-10 -4 -10 -10z"/>
<path d="M9070 5492 c0 -9 21 -32 30 -32 3 0 6 9 7 20 1 14 -4 20 -18 20 -10
0 -19 -4 -19 -8z"/>
<path d="M9025 5460 c-17 -18 -17 -20 -1 -26 10 -4 24 0 32 8 13 13 13 16 1
26 -11 9 -18 8 -32 -8z"/>
<path d="M9157 5433 c-14 -13 -6 -33 13 -33 13 0 20 7 20 20 0 19 -20 27 -33
13z"/>
<path d="M9205 5420 c-11 -18 10 -33 34 -25 21 6 30 25 12 25 -5 0 -16 3 -24
6 -8 3 -18 0 -22 -6z"/>
<path d="M1815 5410 c-3 -5 1 -10 9 -10 9 0 16 5 16 10 0 6 -4 10 -9 10 -6 0
-13 -4 -16 -10z"/>
<path d="M9040 5370 c0 -5 7 -10 16 -10 8 0 12 5 9 10 -3 6 -10 10 -16 10 -5
0 -9 -4 -9 -10z"/>
<path d="M9312 5361 c2 -7 7 -12 11 -12 12 1 9 15 -3 20 -7 2 -11 -2 -8 -8z"/>
<path d="M1397 5342 c-22 -24 -22 -27 8 -46 20 -13 28 -14 45 -4 32 20 24 45
-12 39 -5 0 -8 6 -8 14 0 20 -13 19 -33 -3z"/>
<path d="M853 5323 c-31 -21 -29 -35 5 -31 19 2 28 9 30 26 4 26 -4 27 -35 5z"/>
<path d="M1140 5330 c0 -5 5 -10 10 -10 6 0 10 5 10 10 0 6 -4 10 -10 10 -5 0
-10 -4 -10 -10z"/>
<path d="M9191 5326 c-9 -11 -7 -15 11 -19 12 -4 25 -1 29 5 17 27 -19 39 -40
14z"/>
<path d="M1514 5303 c3 -6 0 -14 -7 -16 -9 -3 -9 -7 0 -19 7 -8 10 -18 6 -21
-3 -4 6 -7 20 -7 15 0 27 -4 27 -10 0 -5 5 -10 11 -10 7 0 5 9 -4 24 -11 17
-13 26 -5 34 8 8 8 15 -1 26 -15 17 -54 17 -47 -1z"/>
<path d="M1005 5280 c-3 -5 1 -10 10 -10 9 0 13 5 10 10 -3 6 -8 10 -10 10 -2
0 -7 -4 -10 -10z"/>
<path d="M9130 5280 c-11 -7 -11 -10 -2 -10 9 0 11 -7 7 -20 -7 -22 9 -27 35
-10 13 8 12 12 -5 29 -14 15 -24 18 -35 11z"/>
<path d="M9396 5282 c-3 -6 -1 -14 5 -17 15 -10 25 3 12 16 -7 7 -13 7 -17 1z"/>
<path d="M9030 5272 c0 -5 7 -9 15 -9 8 0 15 4 15 9 0 4 -7 8 -15 8 -8 0 -15
-4 -15 -8z"/>
<path d="M9290 5270 c0 -5 5 -10 10 -10 6 0 10 5 10 10 0 6 -4 10 -10 10 -5 0
-10 -4 -10 -10z"/>
<path d="M1602 5254 c4 -22 45 -31 61 -15 14 14 8 19 -32 27 -29 6 -33 4 -29
-12z"/>
<path d="M1305 5211 c-6 -11 9 -23 19 -14 9 9 7 23 -3 23 -6 0 -12 -4 -16 -9z"/>
<path d="M1180 5190 c0 -5 5 -10 10 -10 6 0 10 5 10 10 0 6 -4 10 -10 10 -5 0
-10 -4 -10 -10z"/>
<path d="M9596 5174 c-4 -10 -2 -22 3 -27 7 -7 13 -5 17 7 4 10 2 22 -3 27 -7
7 -13 5 -17 -7z"/>
<path d="M9156 5139 c-16 -16 -17 -19 -4 -19 27 0 48 11 48 26 0 20 -21 16
-44 -7z"/>
<path d="M9080 5095 c0 -9 12 -20 26 -25 32 -12 34 -12 34 0 0 6 -9 10 -20 10
-11 0 -20 7 -20 15 0 8 -4 15 -10 15 -5 0 -10 -7 -10 -15z"/>
<path d="M9343 5095 c-7 -20 2 -29 21 -22 9 4 13 13 10 22 -8 19 -23 19 -31 0z"/>
<path d="M9030 5061 c0 -6 5 -13 10 -16 6 -3 10 1 10 9 0 9 -4 16 -10 16 -5 0
-10 -4 -10 -9z"/>
<path d="M845 5034 c-21 -22 -15 -48 12 -52 17 -3 24 3 29 22 10 43 -11 59
-41 30z"/>
<path d="M9416 5043 c-12 -12 -6 -33 9 -33 8 0 15 6 15 14 0 17 -14 28 -24 19z"/>
<path d="M9105 5030 c4 -6 13 -9 21 -6 7 3 18 -3 24 -12 10 -15 10 -15 8 3 -2
14 -12 21 -32 23 -19 2 -26 0 -21 -8z"/>
<path d="M9203 5026 c-13 -6 -23 -15 -23 -21 0 -15 54 -45 79 -45 22 0 28 14
11 25 -8 5 -7 11 0 20 26 31 -20 45 -67 21z"/>
<path d="M1145 5010 c3 -5 8 -10 11 -10 2 0 4 5 4 10 0 6 -5 10 -11 10 -5 0
-7 -4 -4 -10z"/>
<path d="M1280 5010 c-23 -14 2 -32 47 -34 28 -1 38 3 38 14 0 10 -10 15 -27
15 -16 -1 -28 3 -28 7 0 11 -12 10 -30 -2z"/>
<path d="M1435 4980 c3 -5 8 -10 11 -10 2 0 4 5 4 10 0 6 -5 10 -11 10 -5 0
-7 -4 -4 -10z"/>
<path d="M9290 4980 c0 -5 5 -10 10 -10 6 0 10 5 10 10 0 6 -4 10 -10 10 -5 0
-10 -4 -10 -10z"/>
<path d="M687 4974 c-9 -10 2 -24 19 -24 8 0 14 7 14 15 0 15 -21 21 -33 9z"/>
<path d="M1105 4971 c-3 -5 -1 -12 5 -16 5 -3 10 1 10 9 0 18 -6 21 -15 7z"/>
<path d="M9385 4970 c3 -5 8 -10 11 -10 2 0 4 5 4 10 0 6 -5 10 -11 10 -5 0
-7 -4 -4 -10z"/>
<path d="M9035 4960 c4 -6 11 -8 16 -5 14 9 11 15 -7 15 -8 0 -12 -5 -9 -10z"/>
<path d="M1270 4943 c-35 -7 -42 -17 -21 -30 16 -10 23 -8 42 13 12 13 18 23
13 23 -5 -1 -20 -4 -34 -6z"/>
<path d="M8980 4937 c0 -9 -4 -17 -10 -17 -5 0 -10 -6 -10 -14 0 -21 31 -29
48 -12 13 12 12 17 -7 37 -17 19 -21 20 -21 6z"/>
<path d="M9076 4941 c-4 -7 -5 -15 -2 -18 9 -9 19 4 14 18 -4 11 -6 11 -12 0z"/>
<path d="M780 4930 c0 -5 5 -10 10 -10 6 0 10 5 10 10 0 6 -4 10 -10 10 -5 0
-10 -4 -10 -10z"/>
<path d="M974 4926 c-10 -27 2 -43 14 -19 8 14 9 24 2 28 -6 3 -13 -1 -16 -9z"/>
<path d="M9326 4931 c-3 -5 1 -11 9 -15 8 -3 15 -1 15 4 0 13 -18 22 -24 11z"/>
<path d="M9600 4924 c0 -8 5 -12 10 -9 6 4 8 11 5 16 -9 14 -15 11 -15 -7z"/>
<path d="M696 4921 c-3 -4 3 -16 13 -25 17 -16 20 -16 35 0 9 9 15 18 13 21
-10 9 -56 13 -61 4z"/>
<path d="M1314 4910 c-30 -12 -39 -30 -16 -30 11 0 23 8 27 17 6 16 8 15 25
-7 21 -27 26 -21 10 11 -12 21 -15 22 -46 9z"/>
<path d="M9105 4900 c3 -5 13 -10 21 -10 8 0 14 5 14 10 0 6 -9 10 -21 10 -11
0 -17 -4 -14 -10z"/>
<path d="M9265 4890 c-10 -17 12 -37 25 -24 8 8 6 15 -4 23 -10 9 -16 9 -21 1z"/>
<path d="M9581 4881 c-10 -6 -10 -10 -1 -16 13 -8 24 -1 19 14 -3 6 -10 7 -18
2z"/>
<path d="M1115 4850 c-3 -5 -1 -10 4 -10 6 0 11 5 11 10 0 6 -2 10 -4 10 -3 0
-8 -4 -11 -10z"/>
<path d="M1005 4840 c-8 -12 20 -24 35 -15 5 3 10 10 10 16 0 12 -37 12 -45
-1z"/>
<path d="M1460 4830 c19 -13 30 -13 30 0 0 6 -10 10 -22 10 -19 0 -20 -2 -8
-10z"/>
<path d="M8905 4830 c4 -6 11 -8 16 -5 14 9 11 15 -7 15 -8 0 -12 -5 -9 -10z"/>
<path d="M9330 4825 c0 -8 5 -15 10 -15 6 0 10 7 10 15 0 8 -4 15 -10 15 -5 0
-10 -7 -10 -15z"/>
<path d="M535 4820 c-4 -7 -3 -16 3 -22 14 -14 45 -2 40 15 -6 16 -34 21 -43
7z"/>
<path d="M600 4821 c0 -20 13 -41 25 -41 18 0 26 15 19 34 -6 17 -44 23 -44 7z"/>
<path d="M1331 4821 c-7 -5 -11 -13 -7 -19 3 -6 0 -12 -6 -15 -10 -4 -10 -7
-1 -17 10 -11 14 -10 19 3 8 22 40 22 52 1 6 -11 16 -14 31 -9 25 8 19 25 -10
25 -12 0 -19 7 -19 20 0 21 -33 28 -59 11z"/>
<path d="M810 4810 c0 -5 5 -10 10 -10 6 0 10 5 10 10 0 6 -4 10 -10 10 -5 0
-10 -4 -10 -10z"/>
<path d="M1201 4784 c0 -11 3 -14 6 -6 3 7 2 16 -1 19 -3 4 -6 -2 -5 -13z"/>
<path d="M9095 4790 c3 -5 8 -10 11 -10 2 0 4 5 4 10 0 6 -5 10 -11 10 -5 0
-7 -4 -4 -10z"/>
<path d="M926 4771 c-3 -5 1 -11 9 -15 8 -3 15 -1 15 4 0 13 -18 22 -24 11z"/>
<path d="M8966 4771 c-4 -5 -2 -12 3 -15 5 -4 12 -2 15 3 4 5 2 12 -3 15 -5 4
-12 2 -15 -3z"/>
<path d="M9255 4764 c-20 -20 -15 -39 10 -39 12 0 21 10 26 28 8 31 -9 37 -36
11z"/>
<path d="M8840 4759 c0 -5 5 -7 10 -4 6 3 10 8 10 11 0 2 -4 4 -10 4 -5 0 -10
-5 -10 -11z"/>
<path d="M9420 4745 c7 -9 15 -13 17 -11 7 7 -7 26 -19 26 -6 0 -6 -6 2 -15z"/>
<path d="M1250 4741 c0 -5 8 -11 18 -13 25 -6 53 2 47 13 -8 12 -65 12 -65 0z"/>
<path d="M8925 4740 c-9 -15 3 -30 20 -24 7 3 11 12 8 20 -6 16 -19 18 -28 4z"/>
<path d="M9335 4730 c-3 -5 1 -10 10 -10 9 0 13 5 10 10 -3 6 -8 10 -10 10 -2
0 -7 -4 -10 -10z"/>
<path d="M8777 4708 c-4 -12 -1 -25 5 -29 6 -4 8 -14 5 -23 -13 -33 3 -15 18
20 19 47 19 54 -4 54 -11 0 -21 -9 -24 -22z"/>
<path d="M1385 4701 c-7 -12 12 -24 25 -16 11 7 4 25 -10 25 -5 0 -11 -4 -15
-9z"/>
<path d="M8705 4700 c3 -5 8 -10 11 -10 2 0 4 5 4 10 0 6 -5 10 -11 10 -5 0
-7 -4 -4 -10z"/>
<path d="M1310 4690 c0 -5 5 -10 11 -10 5 0 7 5 4 10 -3 6 -8 10 -11 10 -2 0
-4 -4 -4 -10z"/>
<path d="M8835 4680 c-17 -19 -17 -21 -1 -39 25 -27 48 -16 44 22 -4 38 -19
44 -43 17z"/>
<path d="M880 4673 c0 -13 5 -23 10 -23 13 0 13 11 0 30 -8 12 -10 11 -10 -7z"/>
<path d="M1244 4659 c-9 -15 11 -33 30 -26 9 4 13 13 10 22 -7 17 -30 20 -40
4z"/>
<path d="M1535 4650 c-3 -5 3 -10 14 -10 12 0 21 5 21 10 0 6 -6 10 -14 10 -8
0 -18 -4 -21 -10z"/>
<path d="M9266 4653 c-11 -11 -6 -23 9 -23 8 0 15 4 15 9 0 13 -16 22 -24 14z"/>
<path d="M9445 4649 c-4 -6 -4 -13 -1 -16 8 -8 36 5 36 17 0 13 -27 13 -35 -1z"/>
<path d="M9193 4633 c-18 -6 -16 -33 1 -33 19 0 31 19 20 30 -5 4 -15 5 -21 3z"/>
<path d="M740 4620 c0 -5 5 -10 10 -10 6 0 10 5 10 10 0 6 -4 10 -10 10 -5 0
-10 -4 -10 -10z"/>
<path d="M9010 4620 c0 -5 5 -10 10 -10 6 0 10 5 10 10 0 6 -4 10 -10 10 -5 0
-10 -4 -10 -10z"/>
<path d="M1090 4610 c0 -5 5 -10 11 -10 5 0 7 5 4 10 -3 6 -8 10 -11 10 -2 0
-4 -4 -4 -10z"/>
<path d="M1422 4610 c-31 -13 -21 -25 20 -24 21 1 33 6 33 15 0 17 -23 21 -53
9z"/>
<path d="M8960 4610 c0 -5 5 -10 10 -10 6 0 10 5 10 10 0 6 -4 10 -10 10 -5 0
-10 -4 -10 -10z"/>
<path d="M9056 4612 c-3 -5 3 -17 14 -27 23 -21 26 -9 6 18 -8 10 -17 14 -20
9z"/>
<path d="M8762 4593 c5 -25 28 -28 28 -4 0 12 -6 21 -16 21 -9 0 -14 -7 -12
-17z"/>
<path d="M8860 4601 c0 -5 7 -14 15 -21 13 -10 15 -9 15 9 0 12 -6 21 -15 21
-8 0 -15 -4 -15 -9z"/>
<path d="M950 4590 c0 -5 5 -10 11 -10 5 0 7 5 4 10 -3 6 -8 10 -11 10 -2 0
-4 -4 -4 -10z"/>
<path d="M1495 4590 c-3 -5 3 -10 14 -10 12 0 21 5 21 10 0 6 -6 10 -14 10 -8
0 -18 -4 -21 -10z"/>
<path d="M9405 4580 c3 -5 8 -10 11 -10 2 0 4 5 4 10 0 6 -5 10 -11 10 -5 0
-7 -4 -4 -10z"/>
<path d="M8930 4570 c0 -5 5 -10 10 -10 6 0 10 5 10 10 0 6 -4 10 -10 10 -5 0
-10 -4 -10 -10z"/>
<path d="M1265 4540 c-3 -5 -1 -10 4 -10 6 0 11 5 11 10 0 6 -2 10 -4 10 -3 0
-8 -4 -11 -10z"/>
<path d="M820 4530 c0 -5 5 -10 10 -10 6 0 10 -13 10 -30 0 -36 25 -41 34 -7
12 46 8 57 -24 57 -16 0 -30 -4 -30 -10z"/>
<path d="M8820 4530 c-12 -8 -11 -10 8 -10 12 0 22 5 22 10 0 13 -11 13 -30 0z"/>
<path d="M9146 4512 c-3 -6 -1 -14 5 -17 15 -10 25 3 12 16 -7 7 -13 7 -17 1z"/>
<path d="M8896 4501 c-9 -15 23 -36 36 -23 5 5 7 15 4 21 -9 13 -33 14 -40 2z"/>
<path d="M1116 4461 c-4 -7 -5 -15 -2 -18 9 -9 19 4 14 18 -4 11 -6 11 -12 0z"/>
<path d="M1360 4460 c0 -5 7 -10 15 -10 8 0 15 5 15 10 0 6 -7 10 -15 10 -8 0
-15 -4 -15 -10z"/>
<path d="M8805 4461 c-6 -11 9 -23 19 -14 9 9 7 23 -3 23 -6 0 -12 -4 -16 -9z"/>
<path d="M8860 4460 c0 -5 7 -10 15 -10 8 0 15 5 15 10 0 6 -7 10 -15 10 -8 0
-15 -4 -15 -10z"/>
<path d="M9215 4460 c3 -5 10 -10 16 -10 5 0 9 5 9 10 0 6 -7 10 -16 10 -8 0
-12 -4 -9 -10z"/>
<path d="M1195 4450 c-3 -5 -1 -10 4 -10 6 0 11 5 11 10 0 6 -2 10 -4 10 -3 0
-8 -4 -11 -10z"/>
<path d="M8950 4448 c0 -5 11 -8 25 -8 14 0 25 3 25 8 0 4 -11 7 -25 7 -14 0
-25 -3 -25 -7z"/>
<path d="M1567 4414 c14 -14 32 -24 40 -22 22 4 -15 44 -43 45 -21 2 -21 1 3
-23z"/>
<path d="M8710 4429 c0 -5 5 -7 10 -4 6 3 10 8 10 11 0 2 -4 4 -10 4 -5 0 -10
-5 -10 -11z"/>
<path d="M8925 4411 c-6 -11 33 -36 42 -27 3 3 3 12 0 21 -7 17 -33 20 -42 6z"/>
<path d="M1392 4386 c1 -10 8 -17 13 -17 15 1 12 24 -3 29 -9 3 -13 -2 -10
-12z"/>
<path d="M8763 4393 c-27 -5 -27 -6 -10 -36 20 -37 47 -49 47 -22 0 9 -10 19
-22 24 l-21 8 24 16 c24 17 22 18 -18 10z"/>
<path d="M8986 4381 c-4 -7 -5 -15 -2 -18 9 -9 19 4 14 18 -4 11 -6 11 -12 0z"/>
<path d="M1450 4361 c0 -17 18 -21 24 -6 3 9 0 15 -9 15 -8 0 -15 -4 -15 -9z"/>
<path d="M1686 4355 c4 -8 11 -15 16 -15 6 0 5 6 -2 15 -7 8 -14 15 -16 15 -2
0 -1 -7 2 -15z"/>
<path d="M1023 4353 c-18 -6 -16 -33 1 -33 8 0 17 4 20 8 7 12 -7 30 -21 25z"/>
<path d="M1600 4350 c0 -5 4 -10 9 -10 6 0 13 5 16 10 3 6 -1 10 -9 10 -9 0
-16 -4 -16 -10z"/>
<path d="M8870 4340 c0 -5 5 -10 10 -10 6 0 10 5 10 10 0 6 -4 10 -10 10 -5 0
-10 -4 -10 -10z"/>
<path d="M8920 4340 c0 -5 5 -10 10 -10 6 0 10 5 10 10 0 6 -4 10 -10 10 -5 0
-10 -4 -10 -10z"/>
<path d="M9037 4344 c-13 -13 -7 -24 14 -24 11 0 19 5 17 12 -5 14 -22 21 -31
12z"/>
<path d="M1537 4333 c-13 -12 -7 -23 13 -23 11 0 20 7 20 15 0 15 -21 21 -33
8z"/>
<path d="M1265 4320 c-3 -5 -1 -10 4 -10 6 0 11 5 11 10 0 6 -2 10 -4 10 -3 0
-8 -4 -11 -10z"/>
<path d="M1640 4320 c-8 -5 -10 -10 -5 -10 6 0 17 5 25 10 8 5 11 10 5 10 -5
0 -17 -5 -25 -10z"/>
<path d="M8665 4320 c3 -5 10 -10 16 -10 5 0 9 5 9 10 0 6 -7 10 -16 10 -8 0
-12 -4 -9 -10z"/>
<path d="M8710 4310 c-8 -5 -11 -12 -7 -16 4 -4 13 -2 19 4 15 15 7 24 -12 12z"/>
<path d="M1487 4303 c-4 -3 -7 -11 -7 -17 0 -6 5 -5 12 2 6 6 9 14 7 17 -3 3
-9 2 -12 -2z"/>
<path d="M1030 4260 c0 -11 7 -20 15 -20 17 0 18 2 9 24 -9 23 -24 20 -24 -4z"/>
<path d="M1556 4255 c-3 -9 0 -15 9 -15 16 0 20 16 6 24 -5 3 -11 -1 -15 -9z"/>
<path d="M8712 4235 c-1 -19 3 -35 8 -35 5 0 7 7 3 16 -4 10 0 20 10 26 23 12
21 28 -1 28 -14 0 -19 -8 -20 -35z"/>
<path d="M1720 4215 c0 -9 5 -15 11 -13 6 2 11 8 11 13 0 5 -5 11 -11 13 -6 2
-11 -4 -11 -13z"/>
<path d="M1640 4213 c0 -26 14 -43 36 -43 13 0 24 5 24 10 0 6 -9 10 -20 10
-10 0 -24 8 -29 18 -6 9 -11 12 -11 5z"/>
<path d="M8920 4175 c0 -9 5 -15 11 -13 6 2 11 8 11 13 0 5 -5 11 -11 13 -6 2
-11 -4 -11 -13z"/>
<path d="M9160 4110 c0 -5 5 -10 10 -10 6 0 10 5 10 10 0 6 -4 10 -10 10 -5 0
-10 -4 -10 -10z"/>
<path d="M1723 4020 c-13 -5 -23 -14 -23 -19 0 -16 20 -23 34 -12 7 6 15 9 17
6 3 -2 10 5 17 15 10 17 10 20 -5 19 -10 0 -28 -4 -40 -9z"/>
<path d="M1570 4010 c0 -5 5 -10 10 -10 6 0 10 5 10 10 0 6 -4 10 -10 10 -5 0
-10 -4 -10 -10z"/>
<path d="M8717 4014 c-9 -9 4 -35 14 -28 5 3 9 12 9 20 0 14 -12 19 -23 8z"/>
<path d="M1747 3974 c-3 -3 -3 -12 0 -19 6 -17 33 -8 33 11 0 14 -21 19 -33 8z"/>
<path d="M1597 3883 c-10 -9 -8 -33 2 -33 5 0 11 9 14 20 5 20 -3 26 -16 13z"/>
<path d="M8630 3880 c0 -5 5 -10 10 -10 6 0 10 5 10 10 0 6 -4 10 -10 10 -5 0
-10 -4 -10 -10z"/>
<path d="M1785 3870 c3 -5 8 -10 11 -10 2 0 4 5 4 10 0 6 -5 10 -11 10 -5 0
-7 -4 -4 -10z"/>
<path d="M1778 3833 c7 -3 16 -2 19 1 4 3 -2 6 -13 5 -11 0 -14 -3 -6 -6z"/>
<path d="M1420 3810 c-13 -8 -13 -11 3 -27 9 -9 17 -12 17 -6 0 6 3 18 6 27 7
18 -4 20 -26 6z"/>
<path d="M1770 3770 c0 -5 5 -10 10 -10 6 0 10 5 10 10 0 6 -4 10 -10 10 -5 0
-10 -4 -10 -10z"/>
<path d="M8543 3723 c-15 -5 -17 -23 -4 -23 5 0 11 7 15 15 3 8 4 15 3 14 -1
0 -8 -3 -14 -6z"/>
<path d="M8760 3695 c0 -8 5 -15 10 -15 6 0 10 7 10 15 0 8 -4 15 -10 15 -5 0
-10 -7 -10 -15z"/>
<path d="M1840 3690 c0 -5 4 -10 9 -10 6 0 13 5 16 10 3 6 -1 10 -9 10 -9 0
-16 -4 -16 -10z"/>
<path d="M8540 3650 c0 -5 5 -10 11 -10 5 0 7 5 4 10 -3 6 -8 10 -11 10 -2 0
-4 -4 -4 -10z"/>
<path d="M8510 3603 c0 -22 2 -25 10 -13 13 20 13 40 0 40 -5 0 -10 -12 -10
-27z"/>
<path d="M1417 3594 c-9 -10 2 -24 19 -24 8 0 14 7 14 15 0 15 -21 21 -33 9z"/>
<path d="M1880 3500 c0 -5 5 -10 11 -10 5 0 7 5 4 10 -3 6 -8 10 -11 10 -2 0
-4 -4 -4 -10z"/>
<path d="M1030 3481 c0 -6 5 -13 10 -16 6 -3 10 1 10 9 0 9 -4 16 -10 16 -5 0
-10 -4 -10 -9z"/>
<path d="M1961 3441 c-7 -5 -9 -11 -4 -14 5 -3 15 -2 22 2 7 5 9 11 4 14 -5 3
-15 2 -22 -2z"/>
<path d="M8475 3409 c-10 -15 3 -25 16 -12 7 7 7 13 1 17 -6 3 -14 1 -17 -5z"/>
<path d="M1850 3395 c0 -8 5 -15 10 -15 6 0 10 7 10 15 0 8 -4 15 -10 15 -5 0
-10 -7 -10 -15z"/>
<path d="M1970 3395 c0 -8 9 -15 20 -15 13 0 18 5 14 15 -4 8 -12 15 -20 15
-8 0 -14 -7 -14 -15z"/>
<path d="M1210 3346 c0 -9 7 -16 16 -16 17 0 14 22 -4 28 -7 2 -12 -3 -12 -12z"/>
<path d="M1920 3350 c0 -5 5 -10 10 -10 6 0 10 5 10 10 0 6 -4 10 -10 10 -5 0
-10 -4 -10 -10z"/>
<path d="M8360 3314 c0 -8 5 -12 10 -9 6 4 8 11 5 16 -9 14 -15 11 -15 -7z"/>
<path d="M8345 3280 c-8 -13 5 -13 25 0 13 8 13 10 -2 10 -9 0 -20 -4 -23 -10z"/>
<path d="M8380 3215 c-8 -9 -8 -15 -2 -15 12 0 26 19 19 26 -2 2 -10 -2 -17
-11z"/>
<path d="M8306 3161 c-4 -7 -5 -15 -2 -18 9 -9 19 4 14 18 -4 11 -6 11 -12 0z"/>
<path d="M8855 3140 c-3 -5 -1 -10 4 -10 6 0 11 5 11 10 0 6 -2 10 -4 10 -3 0
-8 -4 -11 -10z"/>
<path d="M8765 3130 c-3 -5 3 -10 15 -10 12 0 18 5 15 10 -3 6 -10 10 -15 10
-5 0 -12 -4 -15 -10z"/>
<path d="M8222 3060 c-10 -17 -10 -20 3 -20 8 0 15 9 15 20 0 11 -1 20 -3 20
-1 0 -8 -9 -15 -20z"/>
<path d="M8150 2940 c-13 -9 -13 -11 0 -20 10 -6 16 -6 18 0 7 20 -3 30 -18
20z"/>
<path d="M8250 2914 c0 -17 22 -14 28 4 2 7 -3 12 -12 12 -9 0 -16 -7 -16 -16z"/>
<path d="M2277 2863 c-13 -12 -7 -23 14 -23 11 0 17 -5 14 -10 -3 -6 -3 -20 1
-32 l7 -23 8 22 c14 37 -21 89 -44 66z"/>
<path d="M2050 2839 c0 -5 5 -7 10 -4 6 3 10 8 10 11 0 2 -4 4 -10 4 -5 0 -10
-5 -10 -11z"/>
<path d="M2231 2824 c0 -11 3 -14 6 -6 3 7 2 16 -1 19 -3 4 -6 -2 -5 -13z"/>
<path d="M2250 2830 c0 -5 5 -10 11 -10 5 0 7 5 4 10 -3 6 -8 10 -11 10 -2 0
-4 -4 -4 -10z"/>
<path d="M8082 2820 c-7 -11 -9 -20 -4 -20 10 0 32 22 32 32 0 15 -15 8 -28
-12z"/>
<path d="M1785 2800 c3 -5 8 -10 11 -10 2 0 4 5 4 10 0 6 -5 10 -11 10 -5 0
-7 -4 -4 -10z"/>
<path d="M2330 2795 c0 -8 5 -15 10 -15 6 0 10 7 10 15 0 8 -4 15 -10 15 -5 0
-10 -7 -10 -15z"/>
<path d="M8040 2770 c0 -5 5 -10 10 -10 6 0 10 5 10 10 0 6 -4 10 -10 10 -5 0
-10 -4 -10 -10z"/>
<path d="M2300 2740 c0 -5 7 -10 15 -10 8 0 15 5 15 10 0 6 -7 10 -15 10 -8 0
-15 -4 -15 -10z"/>
<path d="M8010 2740 c0 -5 4 -10 9 -10 6 0 13 5 16 10 3 6 -1 10 -9 10 -9 0
-16 -4 -16 -10z"/>
<path d="M8140 2730 c0 -5 5 -10 10 -10 6 0 10 5 10 10 0 6 -4 10 -10 10 -5 0
-10 -4 -10 -10z"/>
<path d="M2340 2720 c-9 -6 -10 -10 -3 -10 6 0 15 5 18 10 8 12 4 12 -15 0z"/>
<path d="M7995 2689 c-4 -12 -3 -25 2 -30 6 -6 10 2 10 21 0 35 -3 38 -12 9z"/>
<path d="M8107 2684 c-11 -11 3 -24 18 -18 8 4 12 10 9 15 -6 11 -18 12 -27 3z"/>
<path d="M2175 2600 c3 -5 10 -10 16 -10 5 0 9 5 9 10 0 6 -7 10 -16 10 -8 0
-12 -4 -9 -10z"/>
<path d="M1135 2560 c-3 -5 1 -10 9 -10 9 0 16 5 16 10 0 6 -4 10 -9 10 -6 0
-13 -4 -16 -10z"/>
<path d="M2495 2520 c-4 -7 -3 -16 3 -22 14 -14 45 -2 40 15 -6 16 -34 21 -43
7z"/>
<path d="M2342 2509 c2 -6 8 -10 13 -10 5 0 11 4 13 10 2 6 -4 11 -13 11 -9 0
-15 -5 -13 -11z"/>
<path d="M2537 2473 c-11 -10 -8 -20 7 -26 10 -4 12 0 9 14 -6 21 -7 22 -16
12z"/>
<path d="M2680 2348 c0 -18 18 -34 28 -24 3 4 -2 14 -11 23 -16 16 -17 16 -17
1z"/>
<path d="M8245 2330 c-9 -15 -1 -23 21 -18 15 3 16 4 1 16 -11 9 -17 10 -22 2z"/>
<path d="M2030 2318 c0 -7 4 -19 9 -27 12 -19 43 -6 39 16 -4 21 -48 31 -48
11z"/>
<path d="M8720 2099 c0 -25 33 -22 38 4 2 12 -3 17 -17 17 -15 0 -21 -6 -21
-21z"/>
<path d="M3045 1970 c-3 -5 -1 -10 6 -10 6 0 18 -8 26 -17 13 -17 13 -17 11 2
-4 30 -30 45 -43 25z"/>
<path d="M3010 1960 c0 -5 5 -10 10 -10 6 0 10 5 10 10 0 6 -4 10 -10 10 -5 0
-10 -4 -10 -10z"/>
<path d="M3000 1930 c0 -5 5 -10 11 -10 5 0 7 5 4 10 -3 6 -8 10 -11 10 -2 0
-4 -4 -4 -10z"/>
<path d="M7190 1931 c0 -6 5 -13 10 -16 6 -3 10 1 10 9 0 9 -4 16 -10 16 -5 0
-10 -4 -10 -9z"/>
<path d="M3125 1890 c-3 -5 1 -10 10 -10 9 0 13 5 10 10 -3 6 -8 10 -10 10 -2
0 -7 -4 -10 -10z"/>
<path d="M7154 1836 c-8 -22 -2 -27 16 -16 12 7 12 12 3 21 -10 10 -14 9 -19
-5z"/>
<path d="M7580 1800 c0 -5 5 -10 10 -10 6 0 10 5 10 10 0 6 -4 10 -10 10 -5 0
-10 -4 -10 -10z"/>
<path d="M3308 1792 c-10 -2 -18 -8 -18 -13 0 -13 27 -11 35 2 9 13 4 16 -17
11z"/>
<path d="M3360 1780 c0 -5 5 -10 10 -10 6 0 10 5 10 10 0 6 -4 10 -10 10 -5 0
-10 -4 -10 -10z"/>
<path d="M6883 1755 c-21 -23 -16 -41 5 -22 10 10 25 17 33 17 12 0 11 2 -1
10 -19 13 -22 12 -37 -5z"/>
<path d="M7116 1746 c3 -9 11 -16 16 -16 13 0 5 23 -10 28 -7 2 -10 -2 -6 -12z"/>
<path d="M2675 1730 c-3 -5 -1 -10 4 -10 6 0 11 5 11 10 0 6 -2 10 -4 10 -3 0
-8 -4 -11 -10z"/>
<path d="M3460 1700 c0 -5 5 -10 10 -10 6 0 10 5 10 10 0 6 -4 10 -10 10 -5 0
-10 -4 -10 -10z"/>
<path d="M6890 1619 c0 -5 5 -7 10 -4 6 3 10 8 10 11 0 2 -4 4 -10 4 -5 0 -10
-5 -10 -11z"/>
<path d="M3630 1590 c0 -5 5 -10 11 -10 5 0 7 5 4 10 -3 6 -8 10 -11 10 -2 0
-4 -4 -4 -10z"/>
<path d="M3690 1559 c0 -5 5 -7 10 -4 6 3 10 8 10 11 0 2 -4 4 -10 4 -5 0 -10
-5 -10 -11z"/>
<path d="M6461 1554 c-18 -21 -7 -29 18 -12 12 8 18 18 14 21 -9 10 -16 8 -32
-9z"/>
<path d="M7772 1548 c6 -18 28 -21 28 -4 0 9 -7 16 -16 16 -9 0 -14 -5 -12
-12z"/>
<path d="M6360 1500 c0 -5 9 -10 21 -10 11 0 17 5 14 10 -3 6 -13 10 -21 10
-8 0 -14 -4 -14 -10z"/>
<path d="M3487 1447 c-13 -20 -26 -27 -49 -27 l-31 0 21 -23 c12 -13 22 -35
22 -50 0 -32 15 -35 30 -7 7 13 21 20 40 20 34 0 39 14 11 30 -13 6 -21 23
-23 47 l-3 37 -18 -27z"/>
<path d="M6250 1460 c0 -5 5 -10 10 -10 6 0 10 5 10 10 0 6 -4 10 -10 10 -5 0
-10 -4 -10 -10z"/>
<path d="M4080 1420 c0 -5 5 -10 10 -10 6 0 10 5 10 10 0 6 -4 10 -10 10 -5 0
-10 -4 -10 -10z"/>
<path d="M4190 1340 c0 -5 5 -10 10 -10 6 0 10 5 10 10 0 6 -4 10 -10 10 -5 0
-10 -4 -10 -10z"/>
<path d="M6435 1340 c-3 -5 -1 -10 4 -10 6 0 11 5 11 10 0 6 -2 10 -4 10 -3 0
-8 -4 -11 -10z"/>
<path d="M4340 1309 c0 -5 5 -7 10 -4 6 3 10 8 10 11 0 2 -4 4 -10 4 -5 0 -10
-5 -10 -11z"/>
<path d="M1576 1298 c-5 -10 -17 -18 -27 -18 -20 0 -26 -15 -9 -25 6 -3 10
-16 10 -27 0 -20 1 -20 18 -5 10 10 24 17 32 17 9 0 9 4 2 13 -5 6 -12 23 -14
37 -4 21 -6 22 -12 8z"/>
<path d="M5795 1280 c-3 -5 -1 -10 4 -10 6 0 11 5 11 10 0 6 -2 10 -4 10 -3 0
-8 -4 -11 -10z"/>
<path d="M4848 1243 c7 -3 16 -2 19 1 4 3 -2 6 -13 5 -11 0 -14 -3 -6 -6z"/>
<path d="M4745 1220 c-3 -5 -1 -10 4 -10 6 0 11 5 11 10 0 6 -2 10 -4 10 -3 0
-8 -4 -11 -10z"/>
<path d="M1510 1203 c0 -6 -6 -13 -13 -15 -8 -2 -11 -11 -8 -23 5 -17 9 -19
26 -10 18 9 19 13 8 35 -7 14 -13 20 -13 13z"/>
<path d="M5245 1200 c3 -5 10 -10 16 -10 5 0 9 5 9 10 0 6 -7 10 -16 10 -8 0
-12 -4 -9 -10z"/>
<path d="M5450 1131 c0 -5 -3 -18 -7 -28 -7 -17 -6 -17 11 0 9 9 22 17 27 17
6 0 7 5 4 10 -8 13 -35 13 -35 1z"/>
<path d="M4818 1113 c7 -3 16 -2 19 1 4 3 -2 6 -13 5 -11 0 -14 -3 -6 -6z"/>
<path d="M1503 1063 c-6 -21 -25 -93 -43 -161 -23 -88 -29 -127 -22 -134 8 -8
14 -4 21 13 15 37 81 282 81 302 0 32 -27 17 -37 -20z"/>
<path d="M4717 1063 c-4 -3 -7 -11 -7 -17 0 -6 5 -5 12 2 6 6 9 14 7 17 -3 3
-9 2 -12 -2z"/>
<path d="M4312 1028 c-17 -17 -15 -28 6 -28 24 0 32 8 25 26 -6 17 -15 18 -31
2z"/>
<path d="M4856 993 c-11 -11 -6 -23 9 -23 8 0 15 4 15 9 0 13 -16 22 -24 14z"/>
<path d="M6510 844 c0 -17 22 -14 28 4 2 7 -3 12 -12 12 -9 0 -16 -7 -16 -16z"/>
<path d="M5630 816 c0 -9 5 -16 10 -16 6 0 10 4 10 9 0 6 -4 13 -10 16 -5 3
-10 -1 -10 -9z"/>
<path d="M3427 553 c-4 -3 -7 -11 -7 -17 0 -6 5 -5 12 2 6 6 9 14 7 17 -3 3
-9 2 -12 -2z"/>
</g>
</svg>
